<svg width="679" height="168" viewBox="0 0 679 168" fill="none" xmlns="http://www.w3.org/2000/svg">
<path d="M68.1723 164.423L21.0121 137.195L37.9419 127.421L76.6372 149.762C78.0657 150.586 79.8258 150.586 81.2544 149.762L120.41 127.155L137.339 136.93L89.7193 164.423C83.0526 168.272 74.8389 168.272 68.1723 164.423Z" fill="#5c94ff"/>
<path d="M118.418 106.37L79.3344 83.8049L40.2505 106.37V125.767L79.6065 103.044L118.418 125.452V106.37Z" fill="#5c94ff"/>
<path d="M158.655 46.1538L158.655 100.61L141.725 90.8352V46.1538C141.725 44.5042 140.845 42.9799 139.417 42.1551L100.261 19.5488V0L147.881 27.4935C154.548 31.3425 158.655 38.4558 158.655 46.1538Z" fill="#5c94ff"/>
<path d="M83.2564 31.666V76.7963L122.34 99.3614L139.138 89.6631L99.7822 66.9408V22.1248L83.2564 31.666Z" fill="#5c94ff"/>
<path d="M5.22271e-06 46.1538L0 100.61L16.9298 90.8352V46.1538C16.9298 44.5042 17.8098 42.9799 19.2384 42.1551L58.3937 19.5488V0L10.7735 27.4935C4.10684 31.3425 7.40408e-06 38.4558 5.22271e-06 46.1538Z" fill="#5c94ff"/>
<path d="M75.3986 31.666V76.7963L36.3147 99.3614L19.5168 89.6631L58.8728 66.9408V22.1248L75.3986 31.666Z" fill="#5c94ff"/>
<path d="M291.834 75.3848C291.834 79.069 291.308 82.039 290.255 84.2946C289.203 86.4751 287.248 88.1669 284.391 89.3699C281.533 90.4977 277.548 91.2496 272.436 91.6255C267.398 92.0015 258.889 92.1894 250.768 92.1894H242.384C235.241 92.1894 229.489 91.9639 225.128 91.5127C220.767 91.0616 217.384 90.1218 214.977 88.6932C212.571 87.2646 210.955 85.2345 210.128 82.6029C209.376 79.9713 209 76.5126 209 72.2269V69.2945H226.707V71.7758C226.707 73.3547 226.857 74.5953 227.158 75.4976C227.459 76.3999 228.173 77.0766 229.301 77.5277C230.429 77.9036 232.045 78.1668 234.151 78.3172C236.331 78.3923 239.263 78.4299 242.948 78.4299H250.317C254.979 78.4299 260.631 78.3923 263.413 78.3172C266.195 78.1668 268.3 77.9036 269.729 77.5277C271.233 77.1517 272.21 76.5878 272.661 75.8359C273.112 75.0089 273.338 73.9562 273.338 72.678V71.5502C273.338 70.3472 273.15 69.4073 272.774 68.7306C272.473 67.9787 271.909 67.4148 271.082 67.0389C270.255 66.6629 269.127 66.4374 267.699 66.3622C266.345 66.287 264.616 66.2494 262.511 66.2494H246.157V53.1666H262.623C266.233 53.1666 268.676 52.7907 269.954 52.0388C271.233 51.2869 271.872 49.7831 271.872 47.5275V46.2868C271.872 45.159 271.608 44.2192 271.082 43.4673C270.631 42.7154 269.691 42.1515 268.263 41.7755C266.909 41.3996 264.917 41.1364 262.285 40.986C259.729 40.8357 254.453 40.7605 250.317 40.7605H242.948C239.263 40.7605 236.331 40.7981 234.151 40.8733C232.045 40.9485 230.429 41.2116 229.301 41.6627C228.173 42.1139 227.459 42.7906 227.158 43.6928C226.857 44.5951 226.707 45.8357 226.707 47.4147V49.4448H209.338V46.9635C209.338 42.6778 209.714 39.2191 210.466 36.5875C211.218 33.9559 212.759 31.9258 215.09 30.4972C217.496 29.0687 220.842 28.1288 225.128 27.6777C229.489 27.2265 235.241 27.001 242.384 27.001H250.768C258.663 27.001 266.984 27.1889 271.872 27.5649C276.834 27.9408 280.669 28.7303 283.375 29.9333C286.157 31.0612 288 32.7153 288.902 34.8958C289.879 37.0011 290.368 39.783 290.368 43.2417V44.7079C290.368 47.4147 290.18 49.6327 289.804 51.3621C289.503 53.0162 288.902 54.3696 288 55.4222C287.173 56.3997 286.007 57.1892 284.503 57.7907C283.075 58.317 281.27 58.8057 279.09 59.2569V59.5952C281.345 59.9712 283.263 60.4223 284.842 60.9486C286.421 61.3997 287.736 62.114 288.789 63.0915C289.842 64.0689 290.594 65.3471 291.045 66.9261C291.571 68.5051 291.834 70.4976 291.834 72.9036V75.3848Z" fill="#262b38"/>
<path d="M365.376 91.1095H302.504V27.5H321.452V76.335H365.376V91.1095Z" fill="#262b38"/>
<path d="M413.545 92.1885C407.455 92.1885 404.122 92.0381 399.686 91.7373C395.325 91.5118 391.603 91.023 388.52 90.2712C385.437 89.4441 382.919 88.3163 380.964 86.8877C379.084 85.4591 377.618 83.5794 376.565 81.2485C375.513 78.9177 374.798 76.0605 374.422 72.677C374.046 69.2936 373.858 65.2334 373.858 60.4965V58.692C373.858 53.9551 374.046 49.8949 374.422 46.5114C374.798 43.1279 375.513 40.2708 376.565 37.9399C377.618 35.5339 379.084 33.6166 380.964 32.188C382.919 30.7594 385.437 29.6692 388.52 28.9173C391.603 28.1654 395.325 27.6767 399.686 27.4511C404.122 27.1504 407.455 27 413.545 27H416.338C422.428 27 425.723 27.1504 430.084 27.4511C434.521 27.6767 438.28 28.1654 441.363 28.9173C444.445 29.6692 446.927 30.7594 448.806 32.188C450.761 33.6166 452.265 35.5339 453.318 37.9399C454.37 40.2708 455.085 43.1279 455.461 46.5114C455.837 49.8949 456.024 53.9551 456.024 58.692V60.4965C456.024 65.2334 455.837 69.2936 455.461 72.677C455.085 76.0605 454.37 78.9553 453.318 81.3613C452.265 83.6922 450.761 85.5719 448.806 87.0005C446.927 88.429 444.445 89.5193 441.363 90.2712C438.28 91.023 434.521 91.5118 430.084 91.7373C425.723 92.0381 422.428 92.1885 416.338 92.1885H413.545ZM415.661 77.4139C421.15 77.4139 423.505 77.2635 426.588 76.9628C429.746 76.662 432.077 75.9477 433.581 74.8199C435.16 73.6169 436.1 71.85 436.4 69.5191C436.776 67.1883 436.964 64.0304 436.964 60.0454V59.0303C436.964 54.9701 436.776 51.7746 436.4 49.4438C436.1 47.0378 435.16 45.2708 433.581 44.143C432.077 42.94 429.746 42.1881 426.588 41.8873C423.505 41.5866 421.15 41.4362 415.661 41.4362H414.222C408.658 41.4362 406.265 41.5866 403.182 41.8873C400.099 42.1881 397.768 42.94 396.189 44.143C394.686 45.2708 393.746 47.0378 393.37 49.4438C393.069 51.7746 392.919 54.9701 392.919 59.0303V60.0454C392.919 64.0304 393.069 67.1883 393.37 69.5191C393.746 71.85 394.686 73.6169 396.189 74.8199C397.768 75.9477 400.099 76.662 403.182 76.9628C406.265 77.2635 408.658 77.4139 414.222 77.4139H415.661Z" fill="#262b38"/>
<path d="M508.341 92.1885C499.318 92.1885 492.1 91.8501 486.686 91.1734C481.273 90.4215 477.1 88.9178 474.167 86.6621C471.31 84.4065 469.43 81.2109 468.528 77.0756C467.626 72.865 467.175 67.3387 467.175 60.4965V58.692C467.175 54.1055 467.363 50.1205 467.739 46.737C468.115 43.3535 468.829 40.4963 469.882 38.1655C471.009 35.8347 472.513 33.9549 474.393 32.5264C476.273 31.0226 478.716 29.8572 481.724 29.0301C484.807 28.203 488.528 27.6767 492.889 27.4511C497.25 27.1504 502.401 27 508.341 27H513.133C520.652 27 526.742 27.2632 531.404 27.7895C536.141 28.3158 539.825 29.3308 542.457 30.8346C545.164 32.2632 547.006 34.3309 547.983 37.0377C548.961 39.6693 549.449 43.0904 549.449 47.3009V47.8519H531.066C531.066 45.6904 529.687 43.7947 527.682 43.0152C526.329 42.4137 524.412 42.0001 521.93 41.7746C519.524 41.4738 516.366 41.3234 512.457 41.3234H509.017C503.604 41.3234 499.356 41.4738 496.273 41.7746C493.19 42.0753 490.897 42.8272 489.393 44.0302C487.889 45.2332 486.949 47.0378 486.573 49.4438C486.198 51.7746 486.01 54.9701 486.01 59.0303V60.1581C486.01 64.1431 486.198 67.3011 486.573 69.6319C486.949 71.8876 487.889 73.6169 489.393 74.8199C490.897 76.0229 493.19 76.7748 496.273 77.0756C499.356 77.3763 503.604 77.5267 509.017 77.5267H512.457C516.818 77.5267 520.276 77.4139 522.833 77.1884C525.464 76.9628 527.457 76.5493 528.81 75.9477C530.164 75.271 531.028 74.4064 531.404 73.3537C531.78 72.3011 531.968 70.9101 531.968 69.1808V67.489H516.457L516.57 55.0829H550.126V69.2936C550.126 73.9553 549.637 77.7523 548.66 80.6846C547.682 83.617 545.84 85.9478 543.134 87.6772C540.427 89.4065 536.667 90.6095 531.855 91.2862C527.043 91.8877 520.803 92.1885 513.133 92.1885H508.341Z" fill="#262b38"/>
<path d="M583.56 91.1095H564.5V27.5H583.56V91.1095Z" fill="#262b38"/>
<path d="M637.276 92.1885C628.479 92.1885 621.374 91.8501 615.96 91.1734C610.547 90.4967 606.336 89.0681 603.328 86.8877C600.396 84.632 598.441 81.4365 597.464 77.3011C596.486 73.0906 595.998 67.489 595.998 60.4965V58.692C595.998 51.7746 596.449 46.2483 597.351 42.1129C598.328 37.9023 600.283 34.7068 603.216 32.5264C606.148 30.2707 610.321 28.8045 615.735 28.1278C621.148 27.3759 628.329 27 637.276 27H642.069C649.888 27 656.167 27.3008 660.904 27.9023C665.716 28.5038 669.4 29.594 671.956 31.173C674.513 32.7519 676.204 34.9324 677.032 37.7144C677.859 40.4212 678.272 43.9174 678.272 48.2032V49.7821H659.889C659.889 48.2784 659.738 47.0002 659.437 45.9475C659.137 44.8949 658.347 44.0302 657.069 43.3535C655.866 42.6768 654.024 42.1881 651.543 41.8873C649.137 41.5866 645.753 41.4362 641.392 41.4362H637.953C632.614 41.4362 628.404 41.5866 625.321 41.8873C622.314 42.1881 620.02 42.94 618.441 44.143C616.938 45.2708 615.998 47.0002 615.622 49.331C615.246 51.6618 615.058 54.895 615.058 59.0303V60.1581C615.058 64.2183 615.246 67.4138 615.622 69.7447C615.998 72.0003 616.938 73.6921 618.441 74.8199C620.02 75.9477 622.314 76.662 625.321 76.9628C628.404 77.2635 632.614 77.4139 637.953 77.4139H640.715C645.227 77.4139 648.761 77.3011 651.317 77.0756C653.873 76.7748 655.791 76.2861 657.069 75.6094C658.898 74.6412 660.001 72.5039 660.001 70.4798L660 69H678.272V70.8725C678.272 74.9327 677.859 78.3538 677.032 81.1357C676.204 83.8425 674.475 86.023 671.843 87.6772C669.212 89.3313 665.452 90.4967 660.565 91.1734C655.753 91.8501 649.362 92.1885 641.392 92.1885H637.276Z" fill="#262b38"/>
<path d="M251.323 132.76C251.323 136.108 251.116 138.798 250.702 140.83C250.289 142.861 249.367 144.422 247.937 145.513C246.545 146.604 244.495 147.338 241.786 147.714C239.115 148.053 235.522 148.222 231.008 148.222H209V116.395H231.008C235.447 116.395 239.002 116.564 241.673 116.903C244.344 117.204 246.395 117.9 247.824 118.991C249.254 120.044 250.194 121.605 250.646 123.675C251.097 125.706 251.323 128.434 251.323 131.857V132.76ZM230.218 140.83C232.927 140.83 235.052 140.754 236.595 140.604C238.175 140.416 239.36 140.04 240.15 139.475C240.94 138.873 241.429 138.027 241.617 136.936C241.843 135.807 241.956 134.321 241.956 132.478V131.913C241.956 130.032 241.843 128.546 241.617 127.455C241.429 126.327 240.94 125.48 240.15 124.916C239.36 124.352 238.175 123.994 236.595 123.844C235.052 123.656 232.927 123.562 230.218 123.562H218.48V140.83H230.218Z" fill="#262b38"/>
<path d="M268.903 148.222H259.367V116.395H268.903V148.222Z" fill="#262b38"/>
<path d="M316.54 138.572C316.54 140.566 316.333 142.203 315.919 143.482C315.543 144.761 314.715 145.795 313.436 146.585C312.157 147.338 310.332 147.865 307.962 148.166C305.63 148.466 302.526 148.617 298.651 148.617H297.184C292.67 148.617 289.096 148.485 286.462 148.222C283.829 147.996 281.835 147.526 280.481 146.811C279.164 146.096 278.317 145.118 277.941 143.877C277.603 142.598 277.433 140.961 277.433 138.967V137.782H286.801V138.629C286.801 139.306 286.914 139.851 287.139 140.265C287.365 140.641 287.817 140.942 288.494 141.168C289.171 141.394 290.13 141.544 291.372 141.62C292.651 141.695 294.344 141.732 296.45 141.732H297.636C299.893 141.732 301.661 141.695 302.94 141.62C304.257 141.544 305.235 141.394 305.874 141.168C306.514 140.942 306.909 140.641 307.059 140.265C307.21 139.889 307.285 139.4 307.285 138.798V138.629C307.285 137.989 307.191 137.481 307.003 137.105C306.853 136.691 306.439 136.39 305.762 136.202C305.084 135.976 304.05 135.826 302.658 135.751C301.304 135.676 299.423 135.638 297.015 135.638C294.08 135.638 291.56 135.6 289.453 135.525C287.384 135.412 285.616 135.224 284.149 134.961C282.719 134.66 281.572 134.284 280.706 133.832C279.879 133.381 279.22 132.798 278.731 132.083C278.28 131.368 277.979 130.522 277.828 129.543C277.715 128.528 277.659 127.343 277.659 125.988V125.763C277.659 123.769 277.866 122.151 278.28 120.909C278.694 119.63 279.502 118.633 280.706 117.919C281.948 117.166 283.678 116.658 285.898 116.395C288.155 116.132 291.09 116 294.701 116H296.62C300.984 116 304.426 116.169 306.947 116.508C309.467 116.809 311.367 117.336 312.646 118.088C313.963 118.803 314.79 119.762 315.129 120.966C315.468 122.17 315.637 123.656 315.637 125.424V126.383H306.269V125.875C306.269 125.311 306.194 124.822 306.044 124.408C305.893 123.994 305.536 123.675 304.972 123.449C304.445 123.186 303.636 122.997 302.545 122.885C301.454 122.772 299.949 122.715 298.031 122.715H296.62C294.363 122.715 292.594 122.753 291.315 122.828C290.036 122.903 289.077 123.054 288.437 123.28C287.798 123.468 287.384 123.769 287.196 124.182C287.045 124.559 286.97 125.085 286.97 125.763V125.932C286.97 126.496 287.045 126.966 287.196 127.343C287.384 127.681 287.835 127.945 288.55 128.133C289.265 128.283 290.356 128.396 291.823 128.471C293.328 128.509 295.378 128.528 297.974 128.528C302.037 128.528 305.291 128.64 307.737 128.866C310.182 129.092 312.044 129.562 313.323 130.277C314.64 130.954 315.505 131.951 315.919 133.268C316.333 134.547 316.54 136.24 316.54 138.347V138.572Z" fill="#262b38"/>
<path d="M345.543 148.222H336.12V123.562H322.407V116.395H359.313V123.562H345.543V148.222Z" fill="#262b38"/>
<path d="M386.88 132.421C388.498 132.421 389.796 132.384 390.774 132.308C391.752 132.196 392.486 131.989 392.975 131.688C393.502 131.387 393.84 130.954 393.991 130.39C394.141 129.826 394.216 129.092 394.216 128.189V127.625C394.216 126.722 394.141 126.007 393.991 125.48C393.84 124.916 393.502 124.483 392.975 124.182C392.486 123.844 391.752 123.637 390.774 123.562C389.796 123.449 388.498 123.392 386.88 123.392H375.086V132.421H386.88ZM403.753 148.222H394.386V145.626C394.386 144.234 394.273 143.124 394.047 142.297C393.859 141.469 393.426 140.848 392.749 140.435C392.072 139.983 391.075 139.701 389.758 139.588C388.479 139.438 386.749 139.362 384.567 139.362H375.086V148.222H365.719V116.395H390.661C393.295 116.395 395.458 116.564 397.151 116.903C398.844 117.204 400.179 117.731 401.157 118.483C402.135 119.235 402.813 120.232 403.189 121.474C403.565 122.678 403.753 124.201 403.753 126.045V127.173C403.753 129.656 403.321 131.556 402.455 132.873C401.628 134.19 400.198 135.092 398.166 135.581V135.751C399.295 135.939 400.217 136.183 400.932 136.484C401.684 136.748 402.267 137.162 402.681 137.726C403.095 138.29 403.377 139.024 403.527 139.927C403.678 140.83 403.753 141.977 403.753 143.369V148.222Z" fill="#262b38"/>
<path d="M421.765 148.222H412.228V116.395H421.765V148.222Z" fill="#262b38"/>
<path d="M430.577 148.222V116.395H456.478C458.924 116.395 460.955 116.527 462.573 116.79C464.228 117.053 465.545 117.505 466.523 118.144C467.501 118.746 468.197 119.555 468.611 120.571C469.025 121.587 469.232 122.847 469.232 124.352C469.232 126.571 468.837 128.227 468.047 129.318C467.257 130.409 466.166 131.161 464.774 131.575V131.688C466.542 131.989 467.896 132.722 468.837 133.889C469.777 135.055 470.248 136.767 470.248 139.024C470.248 140.83 470.022 142.334 469.57 143.538C469.119 144.704 468.423 145.645 467.482 146.36C466.542 147.037 465.357 147.526 463.927 147.827C462.498 148.09 460.805 148.222 458.849 148.222H430.577ZM457.212 141.45C458.642 141.45 459.62 141.187 460.146 140.66C460.711 140.096 460.993 139.268 460.993 138.177C460.993 137.049 460.711 136.24 460.146 135.751C459.62 135.262 458.642 135.017 457.212 135.017H439.944V141.45H457.212ZM456.986 128.923C457.964 128.923 458.717 128.716 459.244 128.302C459.808 127.888 460.09 127.117 460.09 125.988C460.09 124.784 459.808 123.976 459.244 123.562C458.717 123.148 457.964 122.941 456.986 122.941H439.944V128.923H456.986Z" fill="#262b38"/>
<path d="M496.989 148.617C493.076 148.617 489.86 148.466 487.339 148.166C484.856 147.827 482.9 147.225 481.47 146.36C480.041 145.457 479.044 144.253 478.479 142.748C477.953 141.243 477.689 139.306 477.689 136.936V116.395H487.17V133.889C487.17 135.506 487.264 136.804 487.452 137.782C487.678 138.76 488.129 139.513 488.806 140.04C489.483 140.529 490.461 140.848 491.741 140.999C493.057 141.149 494.825 141.225 497.045 141.225H497.835C500.055 141.225 501.823 141.149 503.14 140.999C504.456 140.811 505.453 140.472 506.13 139.983C506.808 139.456 507.24 138.723 507.428 137.782C507.616 136.804 507.71 135.506 507.71 133.889V116.395H517.191V136.936C517.191 139.306 516.928 141.243 516.401 142.748C515.874 144.253 514.896 145.457 513.466 146.36C512.074 147.225 510.118 147.827 507.598 148.166C505.115 148.466 501.898 148.617 497.948 148.617H496.989Z" fill="#262b38"/>
<path d="M546.787 148.222H537.364V123.562H523.651V116.395H560.557V123.562H546.787V148.222Z" fill="#262b38"/>
<path d="M576.5 148.222H566.963V116.395H576.5V148.222Z" fill="#262b38"/>
<path d="M605.401 148.617C602.354 148.617 599.72 148.542 597.501 148.391C595.319 148.278 593.456 148.034 591.914 147.658C590.372 147.244 589.111 146.68 588.133 145.965C587.193 145.25 586.459 144.309 585.932 143.143C585.406 141.977 585.048 140.547 584.86 138.854C584.672 137.162 584.578 135.13 584.578 132.76V131.857C584.578 129.487 584.672 127.455 584.86 125.763C585.048 124.07 585.406 122.64 585.932 121.474C586.459 120.27 587.193 119.311 588.133 118.596C589.111 117.881 590.372 117.336 591.914 116.959C593.456 116.583 595.319 116.339 597.501 116.226C599.72 116.075 602.354 116 605.401 116H606.868C609.915 116 612.53 116.075 614.712 116.226C616.932 116.339 618.813 116.583 620.355 116.959C621.898 117.336 623.139 117.881 624.08 118.596C625.058 119.311 625.81 120.27 626.337 121.474C626.863 122.64 627.221 124.07 627.409 125.763C627.597 127.455 627.691 129.487 627.691 131.857V132.76C627.691 135.13 627.597 137.162 627.409 138.854C627.221 140.547 626.863 141.996 626.337 143.2C625.81 144.366 625.058 145.306 624.08 146.021C623.139 146.736 621.898 147.281 620.355 147.658C618.813 148.034 616.932 148.278 614.712 148.391C612.53 148.542 609.915 148.617 606.868 148.617H605.401ZM606.53 141.225C609.276 141.225 611.42 141.149 612.963 140.999C614.543 140.848 615.709 140.491 616.461 139.927C617.251 139.325 617.722 138.441 617.872 137.274C618.06 136.108 618.154 134.528 618.154 132.534V132.026C618.154 129.995 618.06 128.396 617.872 127.23C617.722 126.026 617.251 125.142 616.461 124.577C615.709 123.976 614.543 123.599 612.963 123.449C611.42 123.298 609.276 123.223 606.53 123.223H605.74C602.956 123.223 600.792 123.298 599.25 123.449C597.708 123.599 596.541 123.976 595.751 124.577C594.999 125.142 594.529 126.026 594.341 127.23C594.19 128.396 594.115 129.995 594.115 132.026V132.534C594.115 134.528 594.19 136.108 594.341 137.274C594.529 138.441 594.999 139.325 595.751 139.927C596.541 140.491 597.708 140.848 599.25 140.999C600.792 141.149 602.956 141.225 605.74 141.225H606.53Z" fill="#262b38"/>
<path d="M678 148.222H663.836L645.214 124.408H644.988V148.222H635.733V116.395H650.123L668.52 140.209H668.689V116.395H678V148.222Z" fill="#262b38"/>
</svg>
