<?xml version="1.0" encoding="UTF-8"?> <svg xmlns="http://www.w3.org/2000/svg" id="Слой_1" data-name="Слой 1" viewBox="0 0 285.81 206.85"> <defs> <style>.cls-1,.cls-2{fill:none;stroke:#00fe5f;}.cls-1{stroke-linecap:round;stroke-linejoin:round;}.cls-2{stroke-miterlimit:10;stroke-width:0.75px;}</style> </defs> <polygon class="cls-1" points="50.71 185.27 50.71 116.34 73 100.72 147.38 100.72 147.38 169.34 125.06 185.27 50.71 185.27"></polygon> <polyline class="cls-1" points="147.38 100.72 125.06 116.34 50.71 116.34"></polyline> <path class="cls-1" d="M125.2,185.17V116.29"></path> <polygon class="cls-1" points="147.28 169.53 147.28 100.6 169.57 84.98 243.96 84.98 243.96 153.6 221.63 169.53 147.28 169.53"></polygon> <polyline class="cls-1" points="243.96 84.98 221.63 100.6 147.28 100.6"></polyline> <path class="cls-1" d="M221.78,169.42V100.54"></path> <polygon class="cls-1" points="72.74 100.59 72.74 31.66 95.03 16.04 169.41 16.04 169.41 84.66 147.09 100.59 72.74 100.59"></polygon> <polyline class="cls-1" points="169.41 16.04 147.09 31.66 72.74 31.66"></polyline> <path class="cls-1" d="M147.24,100.48V31.6"></path> <path class="cls-2" d="M99.27,42.76h16c8.92,0,12.91,4.83,12.91,10.8a10.86,10.86,0,0,1-8.11,10.75,9.58,9.58,0,0,1,5.95,8.89C126.07,82.33,119,87,108.81,87H89.89Zm-.35,38.09h9.47c5.32,0,9.42-2.44,9.44-7.62,0-3.88-2.31-6.36-8.15-6.36h-7.81ZM111.47,60.7c5,0,8.68-1.78,8.68-6.44,0-4.17-3.16-5.33-6.58-5.33h-7.9L103.2,60.7Z"></path> <path class="cls-2" d="M94.33,128.09,85,172.35H77.11l9.38-44.26Z"></path> <path class="cls-2" d="M197.67,140.75c1.63-7.78,3.57-16.52,4.77-21.41h-.24c-3.63,8.22-12.17,25-19.24,38.79h-6.9c-.85-10.93-2.61-31.59-2.66-38.9h-.27c-.7,5-2.63,14.8-4.23,22.39l-3.47,16.51h-7.32l9.38-44.26h11.86c1.06,11.59,2.33,27.78,2.44,34.06h.08c2.21-5.42,10.92-21.53,17.3-34.06h11.88l-9.38,44.26H194Z"></path> </svg> 