<?xml version="1.0" encoding="utf-8"?>
<!-- Generator: Adobe Illustrator 16.0.0, SVG Export Plug-In . SVG Version: 6.00 Build 0)  -->
<!DOCTYPE svg PUBLIC "-//W3C//DTD SVG 1.1//EN" "http://www.w3.org/Graphics/SVG/1.1/DTD/svg11.dtd">
<svg version="1.1" id="Слой_1" xmlns="http://www.w3.org/2000/svg" xmlns:xlink="http://www.w3.org/1999/xlink" x="0px" y="0px"
	 width="105.001px" height="89.808px" viewBox="0 0 105.001 89.808" enable-background="new 0 0 105.001 89.808"
	 xml:space="preserve">
<g>
	<g>
		<path fill="#FFFFFF" d="M16.889,58.812c0.865,0.801,1.509,1.734,1.932,2.807c0.423,1.071,0.636,2.288,0.636,3.647
			c0,2.56-0.815,4.663-2.447,6.31c-0.832,0.831-1.815,1.448-2.951,1.848c-1.136,0.399-2.416,0.6-3.839,0.6H3.622V56.461h6.43
			c1.424,0,2.702,0.19,3.838,0.575C15.025,57.42,16.025,58.012,16.889,58.812z M14.994,69.991c1.263-1.183,1.895-2.758,1.895-4.725
			c0-1.968-0.623-3.551-1.871-4.751c-1.247-1.2-2.943-1.799-5.085-1.799h-3.84v13.05h3.792
			C12.026,71.766,13.73,71.176,14.994,69.991z"/>
	</g>
	<g>
		<path fill="#FFFFFF" d="M62.683,58.812c1.79,1.743,2.688,3.886,2.688,6.43c0,2.527-0.897,4.662-2.688,6.406
			c-1.775,1.727-3.967,2.591-6.574,2.591c-2.638,0-4.838-0.856-6.598-2.567c-1.775-1.728-2.662-3.871-2.662-6.43
			c0-2.56,0.879-4.695,2.639-6.406c1.775-1.728,3.983-2.591,6.621-2.591C58.7,56.245,60.892,57.1,62.683,58.812z M60.835,69.921
			c1.312-1.313,1.967-2.873,1.967-4.68c0-1.808-0.655-3.367-1.967-4.68c-1.296-1.294-2.871-1.941-4.727-1.941
			c-1.871,0-3.455,0.647-4.75,1.941c-1.295,1.296-1.944,2.857-1.944,4.68c0,1.84,0.641,3.398,1.92,4.68
			c1.295,1.294,2.887,1.942,4.774,1.942C57.964,71.864,59.539,71.215,60.835,69.921z"/>
	</g>
	<g>
		<path fill="#FFFFFF" d="M43.173,57.708c0.543,0.431,0.947,0.963,1.211,1.597c0.265,0.631,0.397,1.339,0.397,2.122
			c0,0.767-0.137,1.462-0.409,2.085c-0.272,0.626-0.688,1.162-1.247,1.608c-1.071,0.834-2.503,1.249-4.294,1.249h-2.64v7.653H33.72
			V56.461h5.254c0.862,0,1.651,0.104,2.362,0.312C42.049,56.98,42.661,57.292,43.173,57.708z M41.374,63.394
			c0.271-0.223,0.483-0.495,0.635-0.814c0.152-0.321,0.228-0.713,0.228-1.178c0-0.431-0.073-0.807-0.217-1.125
			c-0.143-0.321-0.352-0.594-0.624-0.818c-0.303-0.237-0.659-0.423-1.066-0.551c-0.408-0.128-0.893-0.191-1.452-0.191h-2.687v5.397
			h2.567C39.925,64.114,40.798,63.874,41.374,63.394z"/>
	</g>
	<g>
		<path fill="#FFFFFF" d="M31.803,71.766v2.257H21.461V56.461h10.173v2.255h-7.701v5.35h7.485v2.255h-7.485v5.445H31.803z"/>
	</g>
	<path fill="#68599C" d="M2.491,59.669C1.121,58.879,0,59.526,0,61.108v6.136c0,1.582,1.121,2.229,2.491,1.438l5.315-3.067
		c1.369-0.791,1.369-2.087,0-2.875L2.491,59.669z"/>
	<path fill="#34B3CB" d="M61.493,64.584l2.971-1.715c0.766-0.442,0.766-1.167,0-1.608l-2.971-1.715
		c-0.766-0.44-1.392-0.08-1.392,0.805v3.431C60.102,64.666,60.728,65.027,61.493,64.584z"/>
	<g>
		<g>
			<path fill="#FFFFFF" d="M3.621,88.722V77.481h2.578v0.774H4.593v9.692h1.606v0.774H3.621z"/>
			<path fill="#FFFFFF" d="M11.539,85.412v1.37c-0.611,0.347-1.202,0.522-1.776,0.522c-0.784,0-1.471-0.296-2.061-0.885
				c-0.589-0.589-0.884-1.271-0.884-2.047c0-0.881,0.294-1.611,0.88-2.19c0.588-0.583,1.324-0.871,2.209-0.871
				c0.528,0,1.072,0.137,1.631,0.412v1.337c-0.602-0.387-1.17-0.58-1.708-0.58c-0.495,0-0.929,0.176-1.299,0.522
				c-0.373,0.349-0.559,0.758-0.559,1.226c0,0.527,0.174,0.971,0.523,1.331c0.349,0.361,0.775,0.54,1.28,0.54
				C10.291,86.099,10.877,85.872,11.539,85.412z"/>
			<path fill="#FFFFFF" d="M12.385,84.283c0-0.775,0.306-1.465,0.919-2.067c0.611-0.604,1.315-0.904,2.107-0.904
				c0.817,0,1.53,0.296,2.14,0.891c0.612,0.594,0.917,1.288,0.917,2.081c0,0.799-0.3,1.501-0.898,2.109
				c-0.598,0.607-1.29,0.912-2.075,0.912c-0.838,0-1.566-0.302-2.184-0.902S12.385,85.093,12.385,84.283z M17.312,84.287
				c0-0.483-0.184-0.902-0.552-1.259c-0.366-0.355-0.802-0.534-1.307-0.534c-0.518,0-0.964,0.182-1.338,0.542
				c-0.374,0.36-0.561,0.791-0.561,1.292c0,0.478,0.189,0.896,0.567,1.254c0.379,0.359,0.823,0.538,1.332,0.538
				c0.496,0,0.93-0.184,1.3-0.552C17.125,85.201,17.312,84.774,17.312,84.287z"/>
			<path fill="#FFFFFF" d="M19.637,87.145v-5.677h1.183v0.875c0.28-0.358,0.547-0.62,0.801-0.785
				c0.254-0.166,0.547-0.247,0.876-0.247c0.432,0,0.77,0.093,1.016,0.282c0.245,0.188,0.453,0.487,0.623,0.9
				c0.299-0.413,0.588-0.713,0.867-0.9c0.279-0.189,0.603-0.282,0.971-0.282c0.451,0,0.84,0.168,1.167,0.506
				c0.326,0.336,0.49,0.737,0.49,1.201v4.127h-1.197v-3.819c0-0.627-0.31-0.942-0.932-0.942c-0.354,0-0.654,0.161-0.9,0.482
				c-0.247,0.322-0.37,0.718-0.37,1.191v3.088h-1.196v-3.66c0-0.743-0.307-1.114-0.916-1.114c-0.362,0-0.67,0.15-0.922,0.454
				c-0.252,0.303-0.378,0.677-0.378,1.121v3.199H19.637z"/>
			<path fill="#FFFFFF" d="M30.494,81.468v1.143c0.572-0.867,1.305-1.3,2.198-1.3c0.733,0,1.363,0.292,1.893,0.877
				c0.529,0.584,0.794,1.282,0.794,2.095c0,0.82-0.269,1.53-0.804,2.127c-0.537,0.596-1.168,0.895-1.896,0.895
				c-0.421,0-0.826-0.111-1.213-0.331c-0.387-0.221-0.707-0.538-0.958-0.956v3.791h-1.197v-8.34H30.494z M34.126,84.283
				c0-0.5-0.188-0.938-0.563-1.312c-0.375-0.374-0.818-0.561-1.327-0.561c-0.517,0-0.965,0.187-1.342,0.558
				c-0.378,0.371-0.567,0.81-0.567,1.314c0,0.519,0.186,0.969,0.56,1.349c0.374,0.38,0.814,0.572,1.323,0.572
				c0.525,0,0.977-0.189,1.353-0.565C33.938,85.261,34.126,84.81,34.126,84.283z"/>
			<path fill="#FFFFFF" d="M36.713,81.468h1.198v3.199c0,0.987,0.434,1.48,1.301,1.48c0.385,0,0.689-0.133,0.914-0.396
				c0.225-0.264,0.338-0.626,0.338-1.085v-3.199h1.182v3.393c0,0.71-0.231,1.295-0.695,1.755c-0.463,0.458-1.054,0.688-1.773,0.688
				c-0.735,0-1.328-0.23-1.783-0.688c-0.453-0.46-0.681-1.059-0.681-1.797V81.468z"/>
			<path fill="#FFFFFF" d="M43.476,79.819h1.197v1.649h1.184v1.096h-1.184v4.581h-1.197v-4.581h-0.943v-1.109h0.943V79.819z"/>
			<path fill="#FFFFFF" d="M52.579,84.539h-4.844c0.106,0.582,0.345,1.007,0.719,1.274c0.374,0.269,0.781,0.403,1.221,0.403
				c0.679,0,1.248-0.282,1.708-0.846l0.873,0.66c-0.656,0.849-1.535,1.273-2.636,1.273c-0.844,0-1.55-0.289-2.119-0.868
				c-0.569-0.578-0.853-1.296-0.853-2.153c0-0.803,0.288-1.499,0.863-2.088c0.577-0.59,1.279-0.884,2.109-0.884
				c0.817,0,1.517,0.3,2.099,0.897C52.302,82.807,52.588,83.583,52.579,84.539z M47.86,83.582h3.466
				c-0.385-0.78-0.953-1.171-1.706-1.171C48.799,82.411,48.213,82.801,47.86,83.582z"/>
			<path fill="#FFFFFF" d="M55.29,81.468v1.17c0.267-0.468,0.526-0.806,0.781-1.014c0.254-0.209,0.585-0.313,0.994-0.313
				c0.115,0,0.28,0.027,0.495,0.081l-0.364,1.199c-0.23-0.047-0.382-0.07-0.454-0.07c-0.403,0-0.743,0.141-1.016,0.424
				c-0.272,0.282-0.409,0.635-0.409,1.056v3.145h-1.197v-5.677H55.29z"/>
			<path fill="#FFFFFF" d="M62.074,82.143l-0.799,0.701c-0.207-0.146-0.386-0.257-0.536-0.332c-0.152-0.077-0.329-0.114-0.538-0.114
				c-0.485,0-0.729,0.179-0.729,0.536c0,0.259,0.308,0.507,0.926,0.749c0.617,0.242,1.061,0.507,1.331,0.795
				c0.27,0.288,0.405,0.637,0.405,1.045c0,0.477-0.193,0.893-0.584,1.247c-0.391,0.356-0.849,0.534-1.377,0.534
				c-0.801,0-1.46-0.373-1.974-1.115l0.943-0.454c0.329,0.321,0.674,0.481,1.03,0.481c0.25,0,0.465-0.066,0.651-0.203
				c0.186-0.136,0.278-0.292,0.278-0.472c0-0.316-0.325-0.601-0.978-0.854c-0.649-0.253-1.102-0.511-1.352-0.768
				c-0.249-0.259-0.374-0.578-0.374-0.958c0-0.473,0.178-0.866,0.532-1.182c0.356-0.313,0.803-0.47,1.339-0.47
				S61.41,81.589,62.074,82.143z"/>
			<path fill="#FFFFFF" d="M65.401,77.481v11.241h-2.579v-0.774h1.606v-9.692h-1.606v-0.774H65.401z"/>
		</g>
	</g>
	<path fill="#038141" d="M54.561,51.954l-5.314,3.068c-1.371,0.791-1.371,2.084,0,2.876l5.314,3.067
		c1.368,0.79,2.489,0.145,2.489-1.437v-6.137C57.05,51.81,55.929,51.163,54.561,51.954z"/>
	<g>
		<path fill="none" d="M104.856,23.016v0.75c0,0.873-0.618,1.229-1.374,0.793l-2.931-1.691c-0.755-0.438-0.755-1.151,0-1.588
			l2.931-1.689c0.271-0.157,0.521-0.208,0.732-0.174c-0.196-0.785-0.435-1.557-0.701-2.311c-0.012-0.005-0.021-0.008-0.031-0.014
			l-2.931-1.691c-0.755-0.436-0.755-1.15,0-1.584l1.157-0.669c-0.087-0.155-0.176-0.308-0.266-0.462l-1.153,0.667
			c-0.755,0.435-1.374,0.081-1.374-0.793V9.177c0-0.018,0.004-0.029,0.004-0.047c-0.52-0.613-1.066-1.205-1.643-1.767
			c-0.073,0.207-0.244,0.403-0.523,0.564L93.825,9.62c-0.758,0.437-1.374,0.08-1.374-0.793V5.443c0-0.871,0.616-1.229,1.374-0.792
			l0.938,0.541c-1.686-1.273-3.531-2.346-5.504-3.178l1.033,0.596c0.754,0.437,0.754,1.149,0,1.586L87.36,5.885
			c-0.756,0.437-1.374,0.08-1.374-0.792V1.709c0-0.328,0.088-0.583,0.235-0.75c-0.766-0.215-1.547-0.395-2.342-0.539
			c-0.021,0.013-0.035,0.027-0.059,0.041l-2.93,1.692c-0.756,0.437-1.374,0.08-1.374-0.792V0.006C79.434,0.004,79.348,0,79.263,0
			c-0.092,0-0.18,0.006-0.271,0.006v1.355c0,0.871-0.617,1.228-1.372,0.792l-2.931-1.692c-0.02-0.014-0.035-0.027-0.055-0.04
			c-0.794,0.145-1.575,0.324-2.341,0.542c0.147,0.167,0.233,0.421,0.233,0.746v3.384c0,0.871-0.617,1.229-1.372,0.792l-2.933-1.689
			c-0.755-0.437-0.755-1.149,0-1.586l1.004-0.58c-1.612,0.684-3.137,1.529-4.56,2.511c0.644-0.239,1.135,0.125,1.135,0.902v3.384
			c0,0.873-0.616,1.229-1.372,0.793l-2.931-1.692c-0.197-0.114-0.34-0.248-0.436-0.39c-0.515,0.514-1.001,1.053-1.471,1.611
			c0,0.01,0.002,0.017,0.002,0.029v3.383c0,0.871-0.616,1.229-1.372,0.793l-1.145-0.66c-0.089,0.15-0.176,0.301-0.263,0.457
			l1.142,0.658c0.757,0.435,0.757,1.15,0,1.586l-2.93,1.691c-0.002,0.001-0.006,0.003-0.01,0.004
			c-0.271,0.76-0.508,1.535-0.708,2.326c0.209-0.03,0.455,0.021,0.717,0.173l2.93,1.691c0.757,0.437,0.757,1.15,0,1.588l-2.93,1.691
			c-0.753,0.435-1.372,0.079-1.372-0.793v-0.62c-0.085,0.853-0.129,1.717-0.129,2.591c0,0.875,0.044,1.739,0.129,2.591v-0.58
			c0-0.871,0.619-1.227,1.372-0.792l2.93,1.69c0.757,0.438,0.757,1.151,0,1.587l-2.93,1.692c-0.259,0.15-0.5,0.201-0.708,0.174
			c0.201,0.791,0.441,1.566,0.713,2.327l2.924,1.688c0.757,0.437,0.757,1.149,0,1.588l-1.126,0.65
			c0.087,0.155,0.175,0.307,0.265,0.461l1.127-0.65c0.756-0.437,1.373-0.08,1.373,0.792v3.375c0.517,0.612,1.061,1.2,1.632,1.762
			c0.084-0.185,0.243-0.361,0.495-0.505l2.93-1.691c0.2-0.116,0.39-0.172,0.561-0.181c0.499-0.051,0.852,0.313,0.852,0.973v3.383
			c0,0.658-0.351,1.021-0.846,0.974c-0.173-0.007-0.364-0.063-0.566-0.179l-0.422-0.244c1.448,1.045,3.012,1.943,4.666,2.672
			l-0.674-0.39c-0.755-0.437-0.755-1.147,0-1.584l2.933-1.693c0.755-0.435,1.372-0.079,1.372,0.794v3.383
			c0,0.308-0.078,0.546-0.21,0.713c0.773,0.217,1.563,0.396,2.363,0.541c0.005-0.002,0.007-0.004,0.009-0.006l2.931-1.692
			c0.755-0.437,1.372-0.078,1.372,0.794v1.313c0.092,0,0.18,0.006,0.271,0.006c0.085,0,0.171-0.006,0.255-0.006v-1.313
			c0-0.872,0.618-1.23,1.374-0.794l2.93,1.692c0.005,0.004,0.008,0.006,0.012,0.009c0.803-0.144,1.592-0.325,2.367-0.541
			c-0.132-0.168-0.214-0.407-0.214-0.716v-3.383c0-0.873,0.618-1.229,1.374-0.794l2.932,1.693c0.754,0.437,0.754,1.147,0,1.584
			l-0.716,0.413c1.756-0.769,3.411-1.727,4.935-2.851l-0.686,0.397c-0.758,0.437-1.374,0.08-1.374-0.793v-3.383
			c0-0.873,0.616-1.23,1.374-0.793l2.929,1.693c0.266,0.151,0.432,0.338,0.511,0.537c0.577-0.568,1.129-1.161,1.653-1.779
			c0-0.003-0.002-0.006-0.002-0.009v-3.382c0-0.874,0.619-1.228,1.374-0.792l1.136,0.655c0.09-0.151,0.178-0.305,0.266-0.461
			l-1.14-0.658c-0.755-0.437-0.755-1.148,0-1.585l2.931-1.691c0.006-0.003,0.01-0.004,0.014-0.007
			c0.271-0.757,0.511-1.528,0.711-2.316c-0.212,0.03-0.458-0.021-0.725-0.174l-2.931-1.692c-0.755-0.437-0.755-1.149,0-1.587
			l2.931-1.69c0.756-0.435,1.374-0.079,1.374,0.792v0.711c0.094-0.896,0.145-1.802,0.145-2.722
			C105.001,24.818,104.95,23.911,104.856,23.016z M98.873,16.649c0-0.873,0.618-1.229,1.372-0.792l2.931,1.691
			c0.757,0.436,0.757,1.149,0,1.585l-2.931,1.692c-0.754,0.436-1.372,0.079-1.372-0.792V16.649z M94.086,10.075l2.932-1.693
			c0.756-0.434,1.373-0.078,1.373,0.796v3.382c0,0.874-0.617,1.228-1.373,0.793l-2.932-1.692
			C93.332,11.225,93.332,10.51,94.086,10.075z M92.453,12.915c0-0.874,0.618-1.228,1.373-0.793l2.93,1.695
			c0.755,0.434,0.755,1.149,0,1.584l-2.93,1.691c-0.755,0.437-1.373,0.081-1.373-0.793V12.915z M87.623,6.342l2.932-1.691
			c0.755-0.437,1.372-0.079,1.372,0.792v3.384c0,0.873-0.617,1.229-1.372,0.793l-2.932-1.692
			C86.867,7.491,86.867,6.778,87.623,6.342z M81.159,2.609l2.928-1.694c0.755-0.436,1.373-0.079,1.373,0.793v3.384
			c0,0.871-0.618,1.229-1.372,0.792l-2.929-1.689C80.402,3.759,80.402,3.046,81.159,2.609z M79.521,5.443
			c0-0.871,0.618-1.229,1.372-0.792l2.932,1.691c0.754,0.437,0.754,1.149,0,1.585L80.894,9.62c-0.754,0.437-1.372,0.08-1.372-0.793
			V5.443z M78.991,5.443v3.384c0,0.873-0.617,1.229-1.372,0.793l-2.931-1.692c-0.755-0.436-0.755-1.149,0-1.585l2.931-1.691
			C78.374,4.214,78.991,4.572,78.991,5.443z M73.053,1.709c0-0.873,0.618-1.229,1.372-0.793l2.932,1.694
			c0.754,0.437,0.754,1.149,0,1.586l-2.932,1.689c-0.754,0.437-1.372,0.08-1.372-0.792V1.709z M66.325,5.443
			c0-0.871,0.617-1.229,1.376-0.792l2.929,1.691c0.755,0.437,0.755,1.149,0,1.585L67.701,9.62c-0.759,0.437-1.376,0.08-1.376-0.793
			V5.443z M66.063,12.915v3.384c0,0.874-0.617,1.23-1.374,0.793l-2.932-1.691c-0.754-0.436-0.754-1.15,0-1.584l2.932-1.695
			C65.446,11.688,66.063,12.042,66.063,12.915z M60.121,9.177c0-0.874,0.62-1.229,1.376-0.796l2.93,1.693
			c0.756,0.436,0.756,1.15,0,1.585l-2.932,1.692c-0.754,0.435-1.374,0.081-1.374-0.793V9.177z M60.121,16.649
			c0-0.873,0.62-1.229,1.376-0.792l2.93,1.691c0.756,0.436,0.756,1.149,0,1.585l-2.93,1.692c-0.756,0.436-1.376,0.079-1.376-0.792
			V16.649z M58.222,20.825l-2.932-1.692c-0.755-0.436-0.755-1.149,0-1.585l2.932-1.691c0.756-0.437,1.373-0.08,1.373,0.792v3.383
			C59.595,20.904,58.978,21.261,58.222,20.825z M59.595,34.864c0,0.873-0.617,1.23-1.373,0.795l-2.932-1.691
			c-0.755-0.436-0.755-1.149,0-1.585l2.932-1.694c0.756-0.436,1.373-0.079,1.373,0.795V34.864z M59.599,27.45
			c0,0.872-0.619,1.228-1.373,0.793l-2.93-1.692c-0.757-0.437-0.757-1.15,0-1.586l2.93-1.692c0.754-0.435,1.373-0.08,1.373,0.792
			V27.45z M64.427,41.44l-2.93,1.692c-0.756,0.437-1.376,0.08-1.376-0.793v-0.001v-3.382l0,0c0-0.486,0.197-0.804,0.497-0.921
			c0.24-0.094,0.544-0.065,0.879,0.129l0.879,0.508l2.051,1.183c0.282,0.164,0.461,0.368,0.532,0.581
			C65.076,40.787,64.9,41.167,64.427,41.44z M60.121,34.864v-3.381c0-0.875,0.62-1.231,1.376-0.795l2.93,1.694
			c0.756,0.436,0.756,1.15,0,1.585l-2.93,1.691C60.741,36.095,60.121,35.737,60.121,34.864z M66.063,38.6
			c0,0.873-0.617,1.228-1.374,0.792l-2.932-1.693c-0.754-0.437-0.754-1.148,0-1.585l2.932-1.691c0.757-0.437,1.374-0.08,1.374,0.793
			V38.6z M70.894,45.173l-2.932,1.692c-0.2,0.117-0.391,0.171-0.563,0.181c-0.497,0.049-0.85-0.314-0.85-0.972v-3.385
			c0-0.656,0.351-1.02,0.844-0.974c0.175,0.009,0.366,0.064,0.568,0.181l2.932,1.693C71.645,44.023,71.645,44.737,70.894,45.173z
			 M77.356,48.905l-2.932,1.694c-0.754,0.437-1.372,0.079-1.372-0.794v-3.383c0-0.873,0.618-1.229,1.372-0.794l2.932,1.693
			C78.11,47.757,78.11,48.468,77.356,48.905z M78.991,46.072c0,0.873-0.617,1.229-1.372,0.793l-2.931-1.692
			c-0.755-0.436-0.755-1.15,0-1.584l2.931-1.693c0.755-0.438,1.372-0.08,1.372,0.793V46.072z M79.521,46.072v-3.383
			c0-0.873,0.618-1.23,1.372-0.793l2.932,1.693c0.754,0.434,0.754,1.148,0,1.584l-2.932,1.692
			C80.14,47.301,79.521,46.945,79.521,46.072z M85.46,49.805c0,0.873-0.618,1.23-1.373,0.794l-2.928-1.694
			c-0.757-0.437-0.757-1.147,0-1.584l2.929-1.693c0.754-0.435,1.372-0.079,1.372,0.794V49.805z M91.927,46.072
			c0,0.873-0.617,1.229-1.372,0.793l-2.932-1.692c-0.756-0.436-0.756-1.15,0-1.584l2.932-1.693c0.755-0.438,1.372-0.08,1.372,0.793
			V46.072z M92.453,38.6v-3.383c0-0.874,0.618-1.23,1.373-0.793l2.93,1.691c0.755,0.437,0.755,1.149,0,1.585l-2.93,1.693
			C93.071,39.827,92.453,39.472,92.453,38.6z M98.391,42.338c0,0.875-0.617,1.229-1.373,0.794l-2.932-1.692
			c-0.754-0.437-0.754-1.152,0-1.587l2.932-1.69c0.756-0.436,1.373-0.082,1.373,0.792V42.338z M98.392,34.864
			c0,0.873-0.618,1.23-1.373,0.795l-2.929-1.691c-0.756-0.436-0.756-1.149,0-1.585l2.929-1.694c0.755-0.436,1.373-0.079,1.373,0.795
			V34.864z M98.392,27.45c0,0.872-0.618,1.228-1.372,0.793l-2.495-1.442c-0.014,0.179-0.023,0.356-0.042,0.533l2.273,1.313
			c0.755,0.438,0.755,1.151,0,1.587l-2.93,1.692c-0.235,0.136-0.455,0.186-0.648,0.177c-0.397,0.868-0.873,1.692-1.421,2.465
			c0.105,0.163,0.17,0.377,0.17,0.648V38.6c0,0.873-0.617,1.228-1.372,0.792l-2.259-1.305c-0.158,0.116-0.315,0.229-0.479,0.339
			l2.475,1.427c0.754,0.435,0.754,1.15,0,1.587l-2.932,1.692c-0.756,0.435-1.374,0.08-1.374-0.794v-2.853
			c-0.172,0.084-0.349,0.164-0.526,0.243v2.61c0,0.875-0.618,1.229-1.372,0.794l-2.929-1.692c-0.234-0.134-0.388-0.297-0.476-0.468
			c-0.468,0.042-0.941,0.067-1.421,0.067c-0.483,0-0.961-0.025-1.433-0.069c-0.088,0.172-0.242,0.335-0.474,0.469l-2.932,1.692
			c-0.754,0.435-1.372,0.08-1.372-0.794v-2.614c-0.177-0.079-0.353-0.161-0.526-0.244v2.858c0,0.875-0.617,1.229-1.372,0.794
			l-2.933-1.692c-0.755-0.437-0.755-1.152,0-1.587l2.48-1.43c-0.161-0.109-0.319-0.225-0.478-0.339l-2.263,1.308
			c-0.755,0.435-1.374,0.08-1.374-0.792v-3.383c0-0.275,0.066-0.492,0.176-0.656c-0.546-0.771-1.021-1.594-1.419-2.46
			c-0.205,0.021-0.438-0.028-0.693-0.174l-2.93-1.692c-0.756-0.437-0.756-1.149,0-1.587l2.317-1.338
			c-0.018-0.176-0.029-0.355-0.041-0.534l-2.544,1.468c-0.752,0.435-1.372,0.079-1.372-0.793v-3.386c0-0.872,0.62-1.227,1.372-0.792
			l2.54,1.467c0.012-0.179,0.023-0.357,0.04-0.536l-2.313-1.335c-0.756-0.438-0.756-1.151,0-1.588l2.93-1.689
			c0.247-0.144,0.475-0.194,0.675-0.178c0.398-0.873,0.874-1.704,1.422-2.479c-0.098-0.163-0.16-0.372-0.16-0.635v-3.384
			c0-0.874,0.619-1.228,1.374-0.793l2.231,1.29c0.158-0.116,0.316-0.229,0.478-0.338l-2.449-1.413c-0.755-0.435-0.755-1.15,0-1.585
			l2.933-1.693c0.755-0.434,1.372-0.078,1.372,0.796v2.817c0.174-0.083,0.35-0.165,0.526-0.245V9.177
			c0-0.874,0.618-1.229,1.372-0.796l2.932,1.693c0.214,0.124,0.362,0.273,0.454,0.43c0.479-0.046,0.963-0.07,1.452-0.07
			c0.487,0,0.967,0.023,1.439,0.067c0.092-0.154,0.24-0.303,0.457-0.427l2.929-1.693c0.754-0.434,1.372-0.078,1.372,0.796v2.569
			c0.178,0.078,0.354,0.158,0.526,0.243V9.177c0-0.874,0.618-1.229,1.374-0.796l2.932,1.693c0.754,0.436,0.754,1.15,0,1.585
			l-2.442,1.41c0.162,0.11,0.319,0.224,0.478,0.339l2.228-1.287c0.755-0.434,1.372-0.08,1.372,0.793v3.384
			c0,0.26-0.059,0.466-0.156,0.627c0.55,0.778,1.029,1.609,1.425,2.485c0.191-0.005,0.402,0.045,0.631,0.177l2.93,1.691
			c0.755,0.437,0.755,1.15,0,1.588l-2.269,1.31c0.018,0.176,0.027,0.356,0.041,0.533l2.491-1.438
			c0.754-0.435,1.372-0.08,1.372,0.792V27.45z M98.392,20.033c0,0.872-0.618,1.229-1.373,0.792l-2.929-1.692
			c-0.756-0.436-0.756-1.149,0-1.585l2.929-1.691c0.755-0.437,1.373-0.08,1.373,0.792V20.033z M100.29,30.688l2.931,1.694
			c0.755,0.436,0.755,1.15,0,1.585l-2.931,1.691c-0.755,0.436-1.374,0.078-1.374-0.795v-3.381
			C98.916,30.609,99.535,30.252,100.29,30.688z M103.176,26.551l-2.931,1.692c-0.754,0.435-1.372,0.079-1.372-0.793v-3.386
			c0-0.872,0.618-1.227,1.372-0.792l2.931,1.692C103.933,25.4,103.933,26.114,103.176,26.551z"/>
		<path fill="#038141" d="M58.222,38.163l-1.127,0.65c0.736,1.244,1.573,2.419,2.5,3.518v-3.375
			C59.595,38.083,58.978,37.726,58.222,38.163z"/>
		<path fill="#FFD954" d="M59.595,20.033v-3.383c0-0.873-0.617-1.229-1.373-0.792l-2.932,1.691c-0.755,0.436-0.755,1.149,0,1.585
			l2.932,1.692C58.978,21.261,59.595,20.904,59.595,20.033z"/>
		<path fill="#01508E" d="M97.02,23.272l-2.491,1.438c0.021,0.34,0.037,0.68,0.037,1.025c0,0.358-0.018,0.714-0.041,1.065
			l2.495,1.442c0.754,0.435,1.372,0.079,1.372-0.793v-3.386C98.392,23.192,97.773,22.837,97.02,23.272z"/>
		<path fill="#038141" d="M61.495,13.353l2.932-1.692c0.756-0.435,0.756-1.15,0-1.585l-2.93-1.693
			c-0.756-0.434-1.376-0.078-1.376,0.796v3.382C60.121,13.434,60.741,13.787,61.495,13.353z"/>
		<path fill="#068792" d="M80.892,2.153l2.93-1.692c0.023-0.014,0.037-0.028,0.059-0.041c-1.417-0.257-2.875-0.399-4.362-0.415
			v1.356C79.518,2.233,80.136,2.59,80.892,2.153z"/>
		<path fill="#FFD954" d="M77.619,2.153c0.755,0.437,1.372,0.08,1.372-0.792V0.006c-1.487,0.015-2.94,0.159-4.357,0.415
			c0.02,0.013,0.035,0.026,0.055,0.04L77.619,2.153z"/>
		<path fill="#01508E" d="M74.688,6.342c-0.755,0.437-0.755,1.149,0,1.585l2.931,1.692c0.755,0.437,1.372,0.08,1.372-0.793V5.443
			c0-0.871-0.617-1.229-1.372-0.792L74.688,6.342z"/>
		<path fill="#0B6F8F" d="M77.356,10.075l-2.932-1.693c-0.754-0.434-1.372-0.078-1.372,0.796v2.572
			c1.478-0.656,3.077-1.087,4.758-1.245C77.719,10.348,77.57,10.199,77.356,10.075z"/>
		<path fill="#01508E" d="M59.594,12.561V9.177c0-0.012-0.002-0.019-0.002-0.029c-0.934,1.104-1.776,2.29-2.515,3.545l1.145,0.66
			C58.978,13.79,59.594,13.432,59.594,12.561z"/>
		<path fill="#0B6F8F" d="M57.956,15.395c0.757-0.437,0.757-1.151,0-1.586l-1.142-0.658c-0.704,1.251-1.307,2.568-1.798,3.94
			c0.004-0.001,0.008-0.003,0.01-0.004L57.956,15.395z"/>
		<path fill="#FFD954" d="M68.222,4.195l2.933,1.689c0.755,0.437,1.372,0.08,1.372-0.792V1.709c0-0.325-0.086-0.579-0.233-0.746
			c-1.051,0.294-2.076,0.646-3.067,1.066l-1.004,0.58C67.467,3.046,67.467,3.759,68.222,4.195z"/>
		<path fill="#68599C" d="M72.526,9.177c0-0.874-0.617-1.229-1.372-0.796l-2.933,1.693c-0.755,0.436-0.755,1.15,0,1.585l2.449,1.413
			c0.589-0.401,1.211-0.762,1.855-1.079V9.177z"/>
		<path fill="#342E7D" d="M74.425,5.885l2.932-1.689c0.754-0.437,0.754-1.149,0-1.586l-2.932-1.694
			c-0.754-0.436-1.372-0.079-1.372,0.793v3.384C73.053,5.964,73.671,6.322,74.425,5.885z"/>
		<path fill="#038141" d="M87.623,7.927l2.932,1.692c0.755,0.437,1.372,0.08,1.372-0.793V5.443c0-0.871-0.617-1.229-1.372-0.792
			l-2.932,1.691C86.867,6.778,86.867,7.491,87.623,7.927z"/>
		<path fill="#038141" d="M81.159,4.195l2.929,1.689c0.754,0.437,1.372,0.08,1.372-0.792V1.709c0-0.873-0.618-1.229-1.373-0.793
			l-2.928,1.694C80.402,3.046,80.402,3.759,81.159,4.195z"/>
		<path fill="#342E7D" d="M85.46,9.177c0-0.874-0.618-1.229-1.372-0.796l-2.929,1.693c-0.217,0.124-0.365,0.273-0.457,0.427
			c1.681,0.159,3.28,0.587,4.758,1.245V9.177z"/>
		<path fill="#68599C" d="M85.986,5.093c0,0.871,0.618,1.229,1.374,0.792l2.932-1.689c0.754-0.437,0.754-1.149,0-1.586l-1.033-0.596
			c-0.983-0.414-1.998-0.762-3.037-1.054c-0.147,0.167-0.235,0.422-0.235,0.75V5.093z"/>
		<path fill="#68599C" d="M100.245,20.825l2.931-1.692c0.757-0.436,0.757-1.149,0-1.585l-2.931-1.691
			c-0.754-0.437-1.372-0.08-1.372,0.792v3.383C98.873,20.904,99.491,21.261,100.245,20.825z"/>
		<path fill="#0B6F8F" d="M100.552,15.401l2.931,1.691c0.01,0.006,0.02,0.009,0.031,0.014c-0.491-1.376-1.098-2.701-1.805-3.958
			l-1.157,0.669C99.797,14.25,99.797,14.965,100.552,15.401z"/>
		<path fill="#342E7D" d="M103.482,19.591l-2.931,1.689c-0.755,0.437-0.755,1.15,0,1.588l2.931,1.691
			c0.756,0.435,1.374,0.079,1.374-0.793v-0.75c-0.129-1.227-0.345-2.429-0.642-3.599C104.003,19.383,103.753,19.434,103.482,19.591z
			"/>
		<path fill="#FFD954" d="M97.019,15.857l-2.929,1.691c-0.756,0.436-0.756,1.149,0,1.585l2.929,1.692
			c0.755,0.436,1.373,0.079,1.373-0.792v-3.383C98.392,15.777,97.773,15.42,97.019,15.857z"/>
		<path fill="#68599C" d="M91.771,16.926c0.098-0.162,0.156-0.368,0.156-0.627v-3.384c0-0.874-0.617-1.228-1.372-0.793l-2.228,1.287
			C89.656,14.387,90.819,15.577,91.771,16.926z"/>
		<path fill="#342E7D" d="M93.826,17.092l2.93-1.691c0.755-0.436,0.755-1.15,0-1.584l-2.93-1.695
			c-0.755-0.434-1.373-0.08-1.373,0.793v3.384C92.453,17.172,93.071,17.529,93.826,17.092z"/>
		<path fill="#FFD954" d="M92.451,5.443v3.384c0,0.873,0.616,1.229,1.374,0.793l2.929-1.692c0.279-0.161,0.45-0.357,0.523-0.564
			c-0.791-0.775-1.63-1.502-2.515-2.171L93.825,4.65C93.067,4.214,92.451,4.572,92.451,5.443z"/>
		<path fill="#068792" d="M98.916,12.56c0,0.874,0.619,1.228,1.374,0.793l1.153-0.667c-0.74-1.257-1.586-2.446-2.523-3.556
			c0,0.019-0.004,0.03-0.004,0.047V12.56z"/>
		<path fill="#FFD954" d="M58.222,30.688l-2.932,1.694c-0.755,0.436-0.755,1.15,0,1.585l2.932,1.691
			c0.756,0.436,1.373,0.078,1.373-0.795v-3.381C59.595,30.609,58.978,30.252,58.222,30.688z"/>
		<path fill="#ACD9F1" d="M60.618,38.034c-0.3,0.117-0.497,0.435-0.497,0.921l0,0C60.121,38.47,60.318,38.151,60.618,38.034z"/>
		<path fill="#ACD9F1" d="M64.959,40.434c-0.071-0.213-0.25-0.417-0.532-0.581l-2.051-1.183l2.051,1.183
			C64.709,40.019,64.887,40.221,64.959,40.434z"/>
		<path fill="#068792" d="M80.892,49.361c-0.756-0.437-1.374-0.078-1.374,0.794v1.313c1.472-0.014,2.912-0.155,4.315-0.406
			c-0.004-0.003-0.007-0.005-0.012-0.009L80.892,49.361z"/>
		<path fill="#FFD954" d="M77.619,49.361l-2.931,1.692c-0.002,0.002-0.004,0.004-0.009,0.006c1.402,0.252,2.842,0.394,4.312,0.409
			v-1.313C78.991,49.283,78.374,48.924,77.619,49.361z"/>
		<path fill="#01508E" d="M77.619,41.896l-2.931,1.693c-0.755,0.434-0.755,1.148,0,1.584l2.931,1.692
			c0.755,0.437,1.372,0.08,1.372-0.793v-3.383C78.991,41.816,78.374,41.458,77.619,41.896z"/>
		<path fill="#0B6F8F" d="M73.053,42.338c0,0.875,0.618,1.229,1.372,0.794l2.932-1.692c0.231-0.134,0.386-0.297,0.474-0.469
			c-1.687-0.156-3.294-0.589-4.777-1.248V42.338z"/>
		<path fill="#FFD954" d="M72.526,46.422c0-0.873-0.617-1.229-1.372-0.794l-2.933,1.693c-0.755,0.437-0.755,1.147,0,1.584
			l0.674,0.39c1.102,0.485,2.243,0.896,3.421,1.224c0.132-0.167,0.21-0.405,0.21-0.713V46.422z"/>
		<path fill="#68599C" d="M68.222,39.854c-0.755,0.435-0.755,1.15,0,1.587l2.933,1.692c0.755,0.435,1.372,0.08,1.372-0.794v-2.858
			c-0.634-0.312-1.244-0.664-1.824-1.056L68.222,39.854z"/>
		<path fill="#342E7D" d="M77.356,47.321l-2.932-1.693c-0.754-0.435-1.372-0.079-1.372,0.794v3.383c0,0.873,0.618,1.23,1.372,0.794
			l2.932-1.694C78.11,48.468,78.11,47.757,77.356,47.321z"/>
		<path fill="#038141" d="M90.555,41.896l-2.932,1.693c-0.756,0.434-0.756,1.148,0,1.584l2.932,1.692
			c0.755,0.437,1.372,0.08,1.372-0.793v-3.383C91.927,41.816,91.31,41.458,90.555,41.896z"/>
		<path fill="#038141" d="M84.088,45.628l-2.929,1.693c-0.757,0.437-0.757,1.147,0,1.584l2.928,1.694
			c0.755,0.437,1.373,0.079,1.373-0.794v-3.383C85.46,45.549,84.842,45.193,84.088,45.628z"/>
		<path fill="#068792" d="M81.159,41.44l2.929,1.692c0.754,0.435,1.372,0.08,1.372-0.794v-2.61c-1.483,0.659-3.09,1.09-4.776,1.245
			C80.771,41.143,80.925,41.307,81.159,41.44z"/>
		<path fill="#68599C" d="M90.292,47.321l-2.932-1.693c-0.756-0.435-1.374-0.079-1.374,0.794v3.383c0,0.309,0.082,0.548,0.214,0.716
			c1.16-0.324,2.289-0.726,3.376-1.203l0.716-0.413C91.046,48.468,91.046,47.757,90.292,47.321z"/>
		<path fill="#68599C" d="M98.916,31.483v3.381c0,0.873,0.619,1.23,1.374,0.795l2.931-1.691c0.755-0.436,0.755-1.149,0-1.585
			l-2.931-1.694C99.535,30.252,98.916,30.609,98.916,31.483z"/>
		<path fill="#0B6F8F" d="M100.552,36.114c-0.755,0.437-0.755,1.149,0,1.585l1.14,0.658c0.707-1.252,1.313-2.568,1.805-3.941
			c-0.004,0.003-0.008,0.004-0.014,0.007L100.552,36.114z"/>
		<path fill="#0B6F8F" d="M103.482,26.956l-2.931,1.69c-0.755,0.438-0.755,1.151,0,1.587l2.931,1.692
			c0.267,0.153,0.513,0.204,0.725,0.174c0.301-1.184,0.519-2.4,0.649-3.64v-0.711C104.856,26.877,104.238,26.521,103.482,26.956z"/>
		<path fill="#FFD954" d="M97.019,30.688l-2.929,1.694c-0.756,0.436-0.756,1.15,0,1.585l2.929,1.691
			c0.755,0.436,1.373,0.078,1.373-0.795v-3.381C98.392,30.609,97.773,30.252,97.019,30.688z"/>
		<path fill="#68599C" d="M88.296,38.087l2.259,1.305c0.755,0.435,1.372,0.08,1.372-0.792v-3.383c0-0.271-0.064-0.486-0.17-0.648
			C90.8,35.919,89.631,37.109,88.296,38.087z"/>
		<path fill="#342E7D" d="M96.756,37.699c0.755-0.437,0.755-1.148,0-1.585l-2.93-1.691c-0.755-0.437-1.373-0.08-1.373,0.793V38.6
			c0,0.873,0.618,1.228,1.373,0.792L96.756,37.699z"/>
		<path fill="#FFD954" d="M96.754,43.589l-2.929-1.693c-0.758-0.438-1.374-0.08-1.374,0.793v3.383c0,0.873,0.616,1.229,1.374,0.793
			l0.686-0.397c0.973-0.716,1.893-1.5,2.754-2.342C97.186,43.927,97.02,43.74,96.754,43.589z"/>
		<path fill="#ACD9F1" d="M66.022,42.688v3.385c0,0.637-0.331,0.995-0.805,0.972c0.495,0.047,0.846-0.315,0.846-0.974v-3.383
			c0-0.66-0.353-1.024-0.852-0.973C65.689,41.688,66.022,42.047,66.022,42.688z"/>
		<path fill="#ACD9F1" d="M70.894,43.589l-2.932-1.693c-0.202-0.117-0.394-0.172-0.568-0.181c0.165,0.014,0.342,0.073,0.529,0.181
			l2.932,1.692c0.754,0.436,0.754,1.149,0,1.588l-2.932,1.691c-0.185,0.105-0.362,0.163-0.523,0.179
			c0.172-0.01,0.362-0.063,0.563-0.181l2.932-1.692C71.645,44.737,71.645,44.023,70.894,43.589z"/>
		<path fill="#068792" d="M98.916,38.956v3.382c0,0.003,0.002,0.005,0.002,0.009c0.93-1.101,1.77-2.28,2.508-3.529l-1.136-0.655
			C99.535,37.728,98.916,38.082,98.916,38.956z"/>
		<path fill="#34B3CB" d="M55.026,24.559l2.93-1.691c0.757-0.438,0.757-1.151,0-1.588l-2.93-1.691
			c-0.263-0.152-0.508-0.203-0.717-0.173c-0.306,1.212-0.527,2.458-0.655,3.73v0.62C53.654,24.638,54.273,24.994,55.026,24.559z"/>
		<path fill="#34B3CB" d="M63.994,24.739l-2.54-1.467c-0.752-0.435-1.372-0.08-1.372,0.792v3.386c0,0.872,0.62,1.228,1.372,0.793
			l2.544-1.468c-0.023-0.343-0.039-0.689-0.039-1.039C63.959,25.4,63.973,25.069,63.994,24.739z"/>
		<path fill="#34B3CB" d="M103.176,24.964l-2.931-1.692c-0.754-0.435-1.372-0.08-1.372,0.792v3.386c0,0.872,0.618,1.228,1.372,0.793
			l2.931-1.692C103.933,26.114,103.933,25.4,103.176,24.964z"/>
		<path fill="#34B3CB" d="M58.226,23.272l-2.93,1.692c-0.757,0.436-0.757,1.149,0,1.586l2.93,1.692
			c0.754,0.435,1.373,0.079,1.373-0.793v-3.386C59.599,23.192,58.979,22.837,58.226,23.272z"/>
		<path fill="#34B3CB" d="M57.956,36.114l-2.924-1.688c0.489,1.367,1.094,2.677,1.798,3.926l1.126-0.65
			C58.713,37.263,58.713,36.551,57.956,36.114z"/>
		<path fill="#34B3CB" d="M61.497,20.825l2.93-1.692c0.756-0.436,0.756-1.149,0-1.585l-2.93-1.691
			c-0.756-0.437-1.376-0.08-1.376,0.792v3.383C60.121,20.904,60.741,21.261,61.497,20.825z"/>
		<path fill="#34B3CB" d="M61.758,13.816c-0.754,0.434-0.754,1.149,0,1.584l2.932,1.691c0.757,0.437,1.374,0.081,1.374-0.793v-3.384
			c0-0.874-0.617-1.228-1.374-0.793L61.758,13.816z"/>
		<path fill="#34B3CB" d="M70.193,13.412l-2.231-1.29c-0.755-0.434-1.374-0.08-1.374,0.793v3.384c0,0.263,0.063,0.472,0.16,0.635
			C67.701,15.582,68.864,14.391,70.193,13.412z"/>
		<path fill="#34B3CB" d="M80.894,9.62l2.932-1.692c0.754-0.436,0.754-1.149,0-1.585L80.894,4.65
			c-0.754-0.437-1.372-0.079-1.372,0.792v3.384C79.521,9.7,80.14,10.056,80.894,9.62z"/>
		<path fill="#34B3CB" d="M90.292,11.66c0.754-0.435,0.754-1.15,0-1.585L87.36,8.381c-0.756-0.434-1.374-0.078-1.374,0.796v2.812
			c0.648,0.316,1.271,0.679,1.863,1.081L90.292,11.66z"/>
		<path fill="#34B3CB" d="M96.756,22.868c0.755-0.438,0.755-1.151,0-1.588l-2.93-1.691c-0.229-0.132-0.439-0.182-0.631-0.177
			c0.674,1.479,1.121,3.082,1.292,4.766L96.756,22.868z"/>
		<path fill="#34B3CB" d="M61.498,7.927l2.931,1.692c0.756,0.437,1.372,0.08,1.372-0.793V5.443c0-0.777-0.491-1.142-1.135-0.902
			c-1.29,0.89-2.498,1.892-3.604,2.997C61.158,7.679,61.301,7.813,61.498,7.927z"/>
		<path fill="#34B3CB" d="M67.701,9.62l2.929-1.692c0.755-0.436,0.755-1.149,0-1.585L67.701,4.65
			c-0.759-0.437-1.376-0.079-1.376,0.792v3.384C66.325,9.7,66.942,10.056,67.701,9.62z"/>
		<path fill="#34B3CB" d="M94.086,11.66l2.932,1.692c0.756,0.435,1.373,0.081,1.373-0.793V9.177c0-0.874-0.617-1.229-1.373-0.796
			l-2.932,1.693C93.332,10.51,93.332,11.225,94.086,11.66z"/>
		<path fill="#34B3CB" d="M55.026,31.926l2.93-1.692c0.757-0.437,0.757-1.149,0-1.587l-2.93-1.69
			c-0.753-0.435-1.372-0.079-1.372,0.792v0.58c0.129,1.288,0.354,2.546,0.665,3.771C54.526,32.127,54.768,32.076,55.026,31.926z"/>
		<path fill="#34B3CB" d="M61.497,35.659l2.93-1.691c0.756-0.436,0.756-1.149,0-1.585l-2.93-1.694
			c-0.756-0.436-1.376-0.079-1.376,0.795v3.381C60.121,35.737,60.741,36.095,61.497,35.659z"/>
		<path fill="#34B3CB" d="M64.689,34.423l-2.932,1.691c-0.754,0.437-0.754,1.149,0,1.585l2.932,1.693
			c0.757,0.435,1.374,0.08,1.374-0.792v-3.383C66.063,34.343,65.446,33.986,64.689,34.423z"/>
		<path fill="#34B3CB" d="M66.764,34.561c-0.109,0.164-0.176,0.38-0.176,0.656V38.6c0,0.873,0.619,1.228,1.374,0.792l2.263-1.308
			C68.89,37.105,67.721,35.913,66.764,34.561z"/>
		<path fill="#34B3CB" d="M83.825,45.173c0.754-0.436,0.754-1.15,0-1.584l-2.932-1.693c-0.754-0.438-1.372-0.08-1.372,0.793v3.383
			c0,0.873,0.618,1.229,1.372,0.793L83.825,45.173z"/>
		<path fill="#34B3CB" d="M85.986,42.338c0,0.875,0.618,1.229,1.374,0.794l2.932-1.692c0.754-0.437,0.754-1.152,0-1.587
			l-2.475-1.427c-0.582,0.395-1.194,0.746-1.831,1.058V42.338z"/>
		<path fill="#34B3CB" d="M93.826,31.926l2.93-1.692c0.755-0.437,0.755-1.149,0-1.587l-2.273-1.313
			c-0.174,1.686-0.626,3.289-1.305,4.769C93.371,32.112,93.591,32.062,93.826,31.926z"/>
		<path fill="#34B3CB" d="M97.018,38.163l-2.932,1.69c-0.754,0.435-0.754,1.15,0,1.587l2.932,1.692
			c0.756,0.435,1.373,0.08,1.373-0.794v-3.382C98.391,38.082,97.773,37.728,97.018,38.163z"/>
		<path fill="#34B3CB" d="M64.651,19.591l-2.93,1.689c-0.756,0.437-0.756,1.15,0,1.588l2.313,1.335
			c0.169-1.693,0.617-3.306,1.292-4.791C65.126,19.397,64.898,19.447,64.651,19.591z"/>
		<path fill="#34B3CB" d="M61.722,28.646c-0.756,0.438-0.756,1.151,0,1.587l2.93,1.692c0.255,0.146,0.488,0.195,0.693,0.174
			c-0.681-1.485-1.134-3.096-1.306-4.792L61.722,28.646z"/>
		<path fill="#34B3CB" d="M64.427,41.44l-2.93,1.692L64.427,41.44c0.474-0.273,0.649-0.654,0.532-1.006
			C65.076,40.787,64.898,41.167,64.427,41.44z"/>
		<path fill="#34B3CB" d="M60.121,42.338v0.001c0,0.873,0.62,1.229,1.376,0.793C60.741,43.567,60.121,43.212,60.121,42.338z"/>
		<path fill="#34B3CB" d="M61.495,38.163l0.881,0.508l-0.879-0.508c-0.335-0.194-0.639-0.223-0.879-0.129
			C60.858,37.94,61.162,37.969,61.495,38.163z"/>
		<path fill="#34B3CB" d="M64.959,40.434c-0.072-0.213-0.25-0.416-0.532-0.581l-2.051-1.183l-0.881-0.508
			c-0.333-0.194-0.637-0.223-0.877-0.129c-0.3,0.117-0.497,0.436-0.497,0.921v3.382c0,0.875,0.62,1.229,1.376,0.794l2.93-1.692
			C64.898,41.167,65.076,40.787,64.959,40.434z"/>
		<path fill="#34B3CB" d="M66.586,46.072v-3.383c0-0.639,0.334-0.998,0.808-0.974c-0.493-0.045-0.844,0.318-0.844,0.974v3.385
			c0,0.657,0.353,1.021,0.85,0.972C66.922,47.071,66.586,46.713,66.586,46.072z"/>
		<path fill="#34B3CB" d="M70.854,45.176c0.754-0.439,0.754-1.153,0-1.588l-2.932-1.692c-0.188-0.108-0.364-0.167-0.529-0.181
			c-0.474-0.024-0.808,0.335-0.808,0.974v3.383c0,0.642,0.336,0.999,0.813,0.974c0.161-0.016,0.339-0.073,0.523-0.179L70.854,45.176
			z"/>
		<path fill="#34B3CB" d="M65.218,47.045c-0.162-0.016-0.341-0.073-0.526-0.181l-0.641-0.37c0.059,0.044,0.119,0.085,0.179,0.128
			l0.422,0.244C64.854,46.982,65.045,47.039,65.218,47.045z"/>
		<path fill="#34B3CB" d="M61.761,43.589l2.931-1.693c0.184-0.106,0.361-0.164,0.521-0.18c-0.171,0.009-0.36,0.065-0.561,0.181
			l-2.93,1.691c-0.252,0.144-0.411,0.32-0.495,0.505c0.01,0.009,0.018,0.016,0.027,0.026C61.333,43.924,61.498,43.739,61.761,43.589
			z"/>
		<path fill="#34B3CB" d="M65.218,47.045c0.474,0.023,0.805-0.335,0.805-0.972v-3.385c0-0.642-0.333-1-0.811-0.973
			c-0.159,0.017-0.337,0.074-0.521,0.18l-2.931,1.693c-0.263,0.15-0.428,0.335-0.507,0.53c0.873,0.855,1.807,1.65,2.797,2.376
			l0.641,0.37C64.877,46.972,65.056,47.03,65.218,47.045z"/>
	</g>
</g>
</svg>
