<?xml version="1.0" encoding="UTF-8"?> <svg xmlns="http://www.w3.org/2000/svg" id="Слой_1" data-name="Слой 1" viewBox="0 0 301.9 127.06"> <defs> <style>.cls-1{fill:#00fe5f;}</style> </defs> <polygon class="cls-1" points="273.09 0.45 227 80.4 227 0.53 200.12 0.53 153.96 80.49 153.96 0.53 129 0.53 129 127.06 155.89 127.06 202.05 47.09 202.05 127.06 228.93 127.06 301.9 0.45 273.09 0.45"></polygon> <path class="cls-1" d="M50.45,103.07q16.52,0,26.85-11T87.65,63.51q0-17.59-10.35-28.58T50.45,24H25v79.12ZM50.45,0Q76.58,0,94.09,18.33T111.6,63.51q0,26.87-17.51,45.19T50.45,127H0V0Z"></path> </svg> 