<?xml version="1.0" encoding="UTF-8" standalone="no"?>
<!-- Creator: CorelDRAW 2020 (64-Bit) -->

<svg
   xml:space="preserve"
   width="268.24mm"
   height="50mm"
   style="shape-rendering:geometricPrecision; text-rendering:geometricPrecision; image-rendering:optimizeQuality; fill-rule:evenodd; clip-rule:evenodd"
   viewBox="0 0 26824 5000"
   version="1.1"
   id="svg167"
   sodipodi:docname="gravitongreylogo.svg"
   inkscape:version="1.2.1 (9c6d41e410, 2022-07-14)"
   xmlns:inkscape="http://www.inkscape.org/namespaces/inkscape"
   xmlns:sodipodi="http://sodipodi.sourceforge.net/DTD/sodipodi-0.dtd"
   xmlns="http://www.w3.org/2000/svg"
   xmlns:svg="http://www.w3.org/2000/svg"><sodipodi:namedview
   id="namedview169"
   pagecolor="#ffffff"
   bordercolor="#000000"
   borderopacity="0.25"
   inkscape:showpageshadow="2"
   inkscape:pageopacity="0.0"
   inkscape:pagecheckerboard="0"
   inkscape:deskcolor="#d1d1d1"
   inkscape:document-units="mm"
   showgrid="false"
   inkscape:zoom="1.2847351"
   inkscape:cx="641.37736"
   inkscape:cy="149.44715"
   inkscape:window-width="2560"
   inkscape:window-height="1377"
   inkscape:window-x="1912"
   inkscape:window-y="-8"
   inkscape:window-maximized="1"
   inkscape:current-layer="Слой_x0020_1" /> <defs
   id="defs134"> <style
   type="text/css"
   id="style132"> <![CDATA[ .fil0 {fill:#AEAEAE;fill-rule:nonzero} ]]> </style>                </defs> <g
   id="Слой_x0020_1"
   inkscape:label="Слой 1"> <metadata
   id="CorelCorpID_0Corel-Layer" /> <path
   class="fil0"
   d="m 2021.13,4919.83 -1409.37,-813.51 505.91,-291.95 1156.56,667.66 c 42.7,24.5 95.45,24.5 138.15,0 l 1170.31,-675.76 505.91,292.3 -1423.12,821.61 c -199.65,114.65 -445.05,114.65 -644.35,-0.35 z"
   id="path137"
   style="fill:#d91745;fill-opacity:1" /><path
   class="fil0"
   d="m 4725.15,1385.34 v 1627.57 l -505.9,-291.95 V 1385.34 c 0,-49.4 -26.25,-94.75 -69.15,-119.6 L 2979.74,589.98 V 6.13 l 1423.31,821.61 c 199.5,115.05 322.1,327.75 322.1,557.6 z"
   id="path139"
   style="fill:#d91745;fill-opacity:1" /><path
   class="fil0"
   d="M -16.15,1385.34 V 3012.91 L 489.76,2720.96 V 1385.34 c 0,-49.4 26.25,-94.75 69.15,-119.6 L 1729.07,589.98 V 6.13 L 305.76,827.74 c -199.15,115.05 -321.91,327.75 -321.91,557.6 z"
   id="path141"
   style="fill:#d91745;fill-opacity:1" /><polygon
   class="fil0"
   points="2345.43,2514.7 1197.82,3177.26 1295.72,3346.91 3384.19,3346.91 3384.19,3347.31 3484.89,3172.66 "
   id="polygon143"
   style="fill:#d91745;fill-opacity:1" /><polygon
   class="fil0"
   points="2226.13,942.99 2059.48,942.99 986.46,2801.26 1078.57,2960.56 2226.13,2298.05 "
   id="polygon145"
   style="fill:#d91745;fill-opacity:1" /><polygon
   class="fil0"
   points="3603.19,2956.16 3701.29,2786.31 2637.13,943.04 2463.73,943.04 2463.73,2298.05 "
   id="polygon147"
   style="fill:#d91745;fill-opacity:1" /><polygon
   class="fil0"
   points="6229.97,3424.96 6796.18,3424.96 6796.18,1965.3 8083.64,1965.3 8083.64,1523.99 6229.97,1523.99 "
   id="polygon149" /><path
   class="fil0"
   d="m 9618.85,2508.1 c 105.46,0 188.91,-3.35 249.61,-10.2 60.65,-6.9 106.7,-19.05 137.9,-37.05 31.4,-20.3 50.65,-47.1 57.5,-81 9,-35.8 13.4,-83.05 13.4,-141.6 v -23.65 c 0,-58.55 -4.4,-105.5 -13.4,-141.65 -6.85,-35.8 -25.75,-62.95 -57.5,-80.95 -31.2,-20.3 -77.25,-33.7 -137.9,-40.4 -60.7,-6.9 -143.8,-10.05 -249.61,-10.05 h -653.9 v 566.2 z m -653.9,916.91 H 8405.44 V 1524.04 h 1311.12 c 186.45,0 339.2,9 458.45,26.8 119.25,18 212.55,51.7 279.75,101.06 67.55,47.3 113.6,115.75 138.11,205.7 26.8,87.45 40.2,202.3 40.2,343.6 v 50.45 c 0,141.65 -13.4,257.35 -40.2,347.31 -24.86,87.5 -70.91,156.3 -138.11,205.65 -67.55,49.25 -160.85,83.1 -279.75,100.9 -118.9,18 -272,27 -458.45,27 h -751.61 z"
   id="path151" /><path
   class="fil0"
   d="m 13310.24,3425.01 h -609.95 l -175.15,-340.45 h -1199.82 l -171.8,340.45 h -606.76 l 1034.72,-1900.97 h 690.9 z m -987.61,-738.2 -394.55,-765.01 h -13.4 l -387.76,765.01 z"
   id="path153" /><path
   class="fil0"
   d="M 13601.65,3425.01 V 1524.04 h 1547.11 c 146.25,0 267.61,7.75 364.06,23.6 98.95,15.7 177.45,42.7 236.05,81.01 58.35,35.8 100.15,84.3 124.7,144.95 24.7,60.5 37,135.85 37,225.8 0,132.8 -23.6,231.4 -70.9,296.85 -47.1,65.1 -112.35,109.9 -195.4,134.75 v 6.9 c 105.45,17.8 186.4,61.75 242.7,131.41 56.25,69.7 84.3,171.8 84.3,306.75 0,107.8 -13.4,197.75 -40.4,269.55 -26.8,69.65 -68.45,125.75 -124.5,168.45 -56.3,40.35 -127,69.65 -212.55,87.65 -85.55,15.85 -186.45,23.65 -303.41,23.65 h -1688.76 z m 1591.01,-404.3 c 85.55,0 143.8,-15.9 175.21,-47.3 33.65,-33.85 50.4,-83.05 50.4,-148.15 0,-67.55 -16.75,-115.7 -50.4,-145 -31.41,-29.25 -90.01,-43.9 -175.21,-43.9 h -1031.31 v 384.35 z m -13.4,-748.46 c 58.6,0 103.4,-12.15 134.8,-37 33.85,-24.7 50.41,-70.75 50.41,-138.15 0,-71.95 -16.56,-120.1 -50.41,-144.8 -31.4,-24.85 -76.6,-37.05 -134.8,-37.05 h -1017.91 v 357.4 h 1017.91 z"
   id="path155" /><polygon
   class="fil0"
   points="18298.2,2002.4 18311.6,2002.4 18311.6,3425.01 18864.4,3425.01 18864.4,1524.04 18004.84,1524.04 16906.13,2946.46 16895.88,2946.46 16895.88,1524.04 16339.73,1524.04 16339.73,3425.01 17185.88,3425.01 "
   id="polygon157" /><polygon
   class="fil0"
   points="20048.76,1951.95 19229.96,1951.95 19229.96,1524.04 21434.33,1524.04 21434.33,1951.95 20611.82,1951.95 20611.82,3425.01 20048.76,3425.01 "
   id="polygon159" /><path
   class="fil0"
   d="m 22838.54,3448.61 c -182,0 -279.4,-4.45 -412.05,-13.45 -130.35,-6.85 -241.45,-21.3 -333.55,-43.9 -92.06,-24.85 -167.41,-58.55 -225.96,-101.05 -56.25,-42.7 -100.2,-98.95 -131.4,-168.65 -31.4,-69.5 -52.9,-155.05 -64.05,-255.95 -11.25,-101.05 -16.75,-222.4 -16.75,-364.06 v -53.8 c 0,-141.65 5.65,-263 16.75,-364.05 11.3,-100.9 32.65,-186.45 64.05,-256.15 31.2,-71.95 75.15,-129.1 131.4,-171.8 58.55,-42.71 133.55,-75.31 225.96,-97.71 92.1,-22.4 203.2,-37.05 333.55,-43.95 132.65,-9 230.05,-13.4 412.05,-13.4 h 87.5 c 182.06,0 278.71,4.4 408.86,13.4 132.65,6.9 245.2,21.2 337.1,43.95 92.05,22.4 166.15,55 222.4,97.71 58.6,42.7 103.41,100.2 134.81,171.8 31.4,69.7 52.9,155.25 64,256.15 11.3,101.05 16.6,222.4 16.6,364.05 v 53.8 c 0,141.66 -5.65,263.01 -16.6,364.06 -11.45,100.9 -32.6,187.5 -64,259.3 -31.4,69.7 -76.56,125.75 -134.81,168.65 -56.25,42.65 -130.35,75.3 -222.4,97.7 -91.9,22.4 -204.45,37.05 -337.1,43.9 -130.15,9 -226.8,13.45 -408.86,13.45 z m 67.2,-441.35 c 164.06,0 232.31,-4.6 324.56,-13.6 94.55,-9 164.05,-30.5 209.05,-63.85 47.1,-35.95 75.15,-88.7 84.15,-158.4 11.45,-69.65 16.75,-164 16.75,-283.11 v -30.15 c 0,-121.35 -5.65,-216.95 -16.75,-286.65 -9,-71.95 -37.05,-124.5 -84.15,-158.4 -45,-35.8 -114.5,-58.55 -209.05,-67.35 -92.05,-9 -160.5,-13.6 -324.56,-13.6 h -47.1 c -166.15,0 -235.8,4.6 -327.9,13.6 -92.05,8.8 -161.75,31.2 -208.85,67.35 -44.95,33.9 -73,86.45 -84.3,158.4 -9,69.7 -13.4,165.3 -13.4,286.65 v 30.15 c 0,119.26 4.4,213.46 13.4,283.11 11.3,69.7 39.35,122.45 84.3,158.4 47.1,33.7 116.8,54.85 208.85,63.85 92.1,9 161.75,13.6 327.9,13.6 z"
   id="path161" /><polygon
   class="fil0"
   points="26241.53,2690.16 24984.37,2690.16 24984.37,3425.01 24418.01,3425.01 24418.01,1524.04 24984.37,1524.04 24984.37,2218.3 26241.53,2218.3 26241.53,1524.04 26807.88,1524.04 26807.88,3425.01 26241.53,3425.01 "
   id="polygon163" /> </g> </svg>
