<?xml version="1.0" encoding="UTF-8" standalone="no"?>
<!-- Generator: Adobe Illustrator 15.1.0, SVG Export Plug-In . SVG Version: 6.00 Build 0)  -->

<svg
   id="_x31_"
   xml:space="preserve"
   height="50.293px"
   viewBox="156 370.854 300 50.293"
   width="300px"
   version="1.1"
   y="0px"
   x="0px"
   enable-background="new 156 370.854 300 50.293"
   sodipodi:docname="infowatch.svg"
   inkscape:version="1.2.1 (9c6d41e410, 2022-07-14)"
   xmlns:inkscape="http://www.inkscape.org/namespaces/inkscape"
   xmlns:sodipodi="http://sodipodi.sourceforge.net/DTD/sodipodi-0.dtd"
   xmlns="http://www.w3.org/2000/svg"
   xmlns:svg="http://www.w3.org/2000/svg"><defs
   id="defs2720" /><sodipodi:namedview
   id="namedview2718"
   pagecolor="#ffffff"
   bordercolor="#000000"
   borderopacity="0.25"
   inkscape:showpageshadow="2"
   inkscape:pageopacity="0.0"
   inkscape:pagecheckerboard="0"
   inkscape:deskcolor="#d1d1d1"
   showgrid="false"
   inkscape:zoom="6.1266667"
   inkscape:cx="150.16322"
   inkscape:cy="25.136017"
   inkscape:window-width="2560"
   inkscape:window-height="1377"
   inkscape:window-x="1912"
   inkscape:window-y="-8"
   inkscape:window-maximized="1"
   inkscape:current-layer="_x31_" />
	<g
   fill="#007D32"
   id="g2693">
		<path
   d="m214.43 396.25c-1.843 4.723-5.02 8.678-9.304 11.508-6.633 4.395-14.804 4.613-17.152 4.589v5.027h0.438c3.423 0 12.134-0.532 19.562-5.45 5.704-3.776 9.903-9.193 11.974-15.674h-5.52z"
   id="path2687" />
		<path
   d="m161.53 391.98c1.843-4.723 5.019-8.678 9.303-11.508 6.634-4.394 14.805-4.614 17.153-4.588v-5.027h-0.438c-3.423 0-12.135 0.532-19.562 5.45-5.712 3.777-9.912 9.193-11.982 15.674h5.53z"
   id="path2689" />
		<path
   d="m187.98 383.88c-5.652 0-10.241 4.588-10.241 10.241s4.589 10.241 10.241 10.241c5.653 0 10.241-4.588 10.241-10.241s-4.58-10.24-10.24-10.24zm-2.88 10.41c-1.589 0-2.873-1.284-2.873-2.873s1.284-2.873 2.873-2.873c1.588 0 2.873 1.284 2.873 2.873 0.01 1.59-1.28 2.87-2.87 2.87z"
   id="path2691" />
	</g>
		<path
   d="m228.04 420.82v-24.555h5.23v24.555h-5.23z"
   id="path2695"
   style="fill:#ffffff" />
		<path
   d="m255.4 420.82l-11.711-16.013v16.013h-5.23v-24.555h5.374l11.373 15.429v-15.429h5.23v24.555h-5.03z"
   id="path2697"
   style="fill:#ffffff" />
		<path
   d="m265.58 420.82v-24.555h17.382v4.604h-12.151v5.188h11.449v4.605h-11.449v10.165h-5.23z"
   id="path2699"
   style="fill:#ffffff" />
		<path
   d="m286.07 408.45c0-7.402 5.416-12.701 12.81-12.701 7.436 0 12.853 5.298 12.853 12.701 0 7.401-5.417 12.699-12.853 12.699-7.4 0-12.81-5.3-12.81-12.7zm20.28 0c0-4.606-2.948-8.062-7.47-8.062-4.529 0-7.436 3.464-7.436 8.062 0 4.562 2.906 8.061 7.436 8.061s7.47-3.49 7.47-8.06z"
   id="path2701"
   style="fill:#ffffff" />
		<path
   d="m377.82 420.82v-19.95h-7.183v-4.604h19.587v4.604h-7.141v19.959h-5.264v-0.01z"
   id="path2703"
   style="fill:#ffffff" />
		<path
   d="m392.02 408.45c0-7.547 5.703-12.701 13.071-12.701 5.416 0 8.542 2.949 10.274 5.999l-4.495 2.206c-1.03-1.986-3.236-3.574-5.779-3.574-4.453 0-7.698 3.422-7.698 8.061 0 4.64 3.236 8.062 7.698 8.062 2.543 0 4.749-1.546 5.779-3.574l4.495 2.172c-1.766 3.059-4.858 6.041-10.274 6.041-7.36 0-13.07-5.16-13.07-12.7z"
   id="path2705"
   style="fill:#ffffff" />
		<path
   d="m435.43 420.82v-10.309h-11.602v10.309h-5.23v-24.555h5.23v9.649h11.602v-9.649h5.265v24.555h-5.27z"
   id="path2707"
   style="fill:#ffffff" />
		<path
   d="m366.47 420.82l-1.401-4.157h-10.486l-1.344 4.157h-5.561l8.51-24.555h7.41l8.525 24.555h-5.65zm-6.65-20.38l-3.76 11.636h7.511l-3.75-11.64z"
   id="path2709"
   style="fill:#ffffff" />
		<polygon
   points="343.73 396.27 338.45 413.19 333.81 396.27 331.22 396.27 328.64 396.27 324 413.19 318.72 396.27 312.83 396.27 321.35 420.82 326.91 420.82 331.22 403.97 331.22 404.01 331.23 403.97 335.54 420.82 341.1 420.82 349.62 396.27"
   id="polygon2711"
   style="fill:#ffffff" />
		<path
   d="m449.71 383.78c-3.473 0-6.286 2.813-6.286 6.287 0 3.473 2.813 6.287 6.286 6.287s6.286-2.814 6.286-6.287c0-3.47-2.81-6.29-6.29-6.29zm0 11.32c-2.78 0-5.027-2.256-5.027-5.028s2.256-5.027 5.027-5.027c2.779 0 5.027 2.256 5.027 5.027s-2.25 5.03-5.03 5.03z"
   id="path2713"
   style="fill:#ffffff" />
		<path
   d="m450.82 392.95l-1.166-2.104h-0.921v2.104h-1.259v-5.932h2.771c1.233 0 1.994 0.812 1.994 1.91 0 1.048-0.659 1.605-1.302 1.757l1.335 2.256h-1.453zm0.13-4.02c0-0.499-0.38-0.803-0.887-0.803h-1.327v1.597h1.327c0.5 0 0.89-0.3 0.89-0.8z"
   id="path2715"
   style="fill:#ffffff" />
</svg>
