<svg xmlns="http://www.w3.org/2000/svg" viewBox="0 0 170 110"><defs><style>.cls-1{fill:#00204d;}.cls-2,.cls-5{fill:#fff;}.cls-3{fill:none;}.cls-4{fill:#00174d;}.cls-5{font-size:13px;font-family:Acronis-Bold, Acronis;font-weight:700;letter-spacing:0.1em;}</style></defs><g id="bg"><rect class="cls-1" x="380" y="-450" width="200" height="1040" transform="translate(410 550) rotate(-90)"/></g><g id="art"><path class="cls-2" d="M166,0H4A4,4,0,0,0,0,4V106a4,4,0,0,0,4,4H166a4,4,0,0,0,4-4V4A4,4,0,0,0,166,0Zm3,106a3,3,0,0,1-3,3H4a3,3,0,0,1-3-3V81.25H169Z"/><path class="cls-2" d="M1,81.25H169V106a3,3,0,0,1-3,3H4a3,3,0,0,1-3-3Z"/><path class="cls-1" d="M4,109H166a3,3,0,0,0,3-3V81.25H1V106A3,3,0,0,0,4,109Z"/><path class="cls-3" d="M4,109H166a3,3,0,0,0,3-3V81.25H1V106A3,3,0,0,0,4,109Z"/><path class="cls-4" d="M18.26,18v5.4h.62L26.12,18h6.09l-9,6.76v.72l9.2,7.47h-6.3L19,27.18h-.72v5.76H13.6V18Z"/><path class="cls-4" d="M39,18v9.6h.67L48.5,18H54v15h-4.7V23.35H48.6l-8.86,9.59H34.27V18Z"/><path class="cls-4" d="M73.65,18v3.8h-12V23.5h6.92c4.64,0,6.34,1.59,6.34,4.58v.43c0,3-1.77,4.43-6.34,4.43H57V18Zm-12,11.43h6.92c1,0,1.52-.32,1.52-1.1V28.1c0-.72-.51-1.09-1.52-1.09h-6.9Z"/><path class="cls-4" d="M94.22,18v3.66H82v2h11V27H82v2.23H94.35v3.68h-17V18Z"/><path class="cls-4" d="M109.24,18c4.38,0,6,2,6,4.87v.62c0,2.92-1.65,4.91-6,4.91h-7.56v4.55H97V18Zm-7.56,6.6h7c1.14,0,1.81-.33,1.81-1.24V23c0-.86-.67-1.2-1.81-1.2h-7Z"/><path class="cls-4" d="M31.94,38.53V53.48H27.25V42.32h-9V53.48H13.6V38.53Z"/><path class="cls-4" d="M47.21,38.53c4.37,0,6,2,6,4.86V44c0,2.92-1.65,4.9-6,4.9H39.63v4.56H35V38.53Zm-7.58,6.59h7c1.13,0,1.8-.34,1.8-1.25v-.34c0-.86-.67-1.21-1.8-1.21h-7Z"/><path class="cls-4" d="M65.82,38.3c5.43,0,9.78,2.64,9.78,7.36v.67c0,4.73-4.35,7.37-9.78,7.37H64.71c-5.56,0-10-2.63-10-7.37v-.67c0-4.72,4.44-7.36,10-7.36Zm-6.31,7.36v.67c0,2.15,2,3.35,5.2,3.35h.89c3.24,0,5.2-1.18,5.2-3.35v-.67c0-2.18-2-3.34-5.2-3.34h-.89c-3.24,0-5.2,1.16-5.2,3.34Z"/><path class="cls-4" d="M95.61,38.53v3.79H88.36V53.48H83.67V42.32H76.41V38.53Z"/><path class="cls-4" d="M114.31,38.53v3.66H102.07v2h11v3.43h-11v2.24h12.36V53.5h-17v-15Z"/><path class="cls-4" d="M121.76,38.53v5.4h.58l7.25-5.4h6.09l-9.05,6.76V46l9.22,7.48h-6.28l-7.1-5.76h-.71v5.76H117.1V38.53Z"/><path class="cls-4" d="M156.4,38.53v3.79h-7.25V53.48h-4.69V42.32h-7.25V38.53Z"/></g><g id="text"><text class="cls-5" transform="translate(52.38 99.13)">ПАРТНЁР</text></g></svg>