<?xml version="1.0" encoding="UTF-8" standalone="no"?>
<svg
   xmlns:dc="http://purl.org/dc/elements/1.1/"
   xmlns:cc="http://creativecommons.org/ns#"
   xmlns:rdf="http://www.w3.org/1999/02/22-rdf-syntax-ns#"
   xmlns:svg="http://www.w3.org/2000/svg"
   xmlns="http://www.w3.org/2000/svg"
   xmlns:sodipodi="http://sodipodi.sourceforge.net/DTD/sodipodi-0.dtd"
   xmlns:inkscape="http://www.inkscape.org/namespaces/inkscape"
   inkscape:version="1.0 (4035a4fb49, 2020-05-01)"
   sodipodi:docname="Logo_ASCON.svg"
   viewBox="0 0 250 69.537642"
   height="69.537643"
   width="250"
   xml:space="preserve"
   id="svg2"
   version="1.1"><metadata
     id="metadata8"><rdf:RDF><cc:Work
         rdf:about=""><dc:format>image/svg+xml</dc:format><dc:type
           rdf:resource="http://purl.org/dc/dcmitype/StillImage" /><dc:title></dc:title></cc:Work></rdf:RDF></metadata><defs
     id="defs6"><clipPath
       id="clipPath26"
       clipPathUnits="userSpaceOnUse"><path
         id="path24"
         d="M 0,595.28 H 841.89 V 0 H 0 Z" /></clipPath></defs><sodipodi:namedview
     inkscape:current-layer="g10"
     inkscape:window-maximized="1"
     inkscape:window-y="-8"
     inkscape:window-x="-8"
     inkscape:cy="29.106689"
     inkscape:cx="132.00878"
     inkscape:zoom="3.0290322"
     fit-margin-bottom="0"
     fit-margin-right="0"
     fit-margin-left="0"
     fit-margin-top="0"
     showgrid="false"
     id="namedview4"
     inkscape:window-height="1018"
     inkscape:window-width="1920"
     inkscape:pageshadow="2"
     inkscape:pageopacity="0"
     guidetolerance="10"
     gridtolerance="10"
     objecttolerance="10"
     borderopacity="1"
     bordercolor="#666666"
     pagecolor="#ffffff" /><g
     transform="matrix(1.3333333,0,0,-1.3333333,-351.57426,485.20986)"
     inkscape:label="ASCON_RGB"
     inkscape:groupmode="layer"
     id="g10"><g
       transform="matrix(0.60170327,0,0,0.60170327,105.02316,144.94313)"
       id="g876"><g
         clip-path="url(#clipPath26)"
         id="g22"><g
           transform="translate(373.4561,278.7266)"
           id="g28"><g
             id="g860"><g
               id="g16"
               transform="translate(-109.7754,-0.03620053)"><path
                 d="M 0,0 H 27.244 L 37.534,10.327 25.47,22.451 H 49.606 L 65.519,38.322 V 22.451 h 16.03 L 65.519,10.327 V 0 h 19.815 l 0.003,85.217 z"
                 style="fill:#c64f15;fill-opacity:1;fill-rule:nonzero;stroke:none"
                 id="path18" /></g><path
               d="m 0,0 c -4.102,0 -9.896,-0.587 -12.36,4.877 -1.373,3.051 1.104,8.05 3.832,10.787 L -1.83,22.429 14.496,22.553 1.432,9.364 H 33.336 V 0 Z M 47.509,0 H 71.691 V 9.364 H 36.266 c 0,-1.752 0.521,-4.17 2.723,-6.248 C 41.142,1.035 44.526,0 47.509,0 M 74.687,0 H 86.513 V 9.364 H 74.687 Z m 26.647,0 V 12.927 H 74.687 V 33.671 L 66.943,25.939 H 48.097 V 12.927 H 36.266 v 13.012 c 0,2.338 0.577,5.202 3.264,7.076 3.227,2.216 6.226,2.418 8.567,2.418 H 86.513 V 22.429 h 14.821 c 3.187,0 6.367,0 8.706,-2.153 3.006,-2.66 3.067,-4.931 3.067,-7.349 V 0 Z m 73.982,0 h -11.889 v 22.429 h 26.574 V 35.433 H 201.84 V 12.927 h -26.524 z m 14.685,0 H 201.84 V 9.364 H 190.001 Z M 33.336,12.927 v 13.012 c 0,-0.069 0,4.544 -2.988,6.893 -2.991,2.338 -6.751,2.601 -8.91,2.601 l -9.809,0.12 -9.488,-9.494 19.297,-0.12 V 12.927 Z m 82.758,0 v 13.012 c 0,2.08 1.093,4.489 3.118,6.372 2.015,1.813 5.465,3.122 8.708,3.122 h 20.806 c 3.123,0 6.691,-1.24 8.327,-2.674 2.198,-1.883 3.378,-4.294 3.378,-6.82 H 127.92 V 12.927 Z m 44.337,9.502 H 148.598 V 9.488 h -32.504 c 0,-2.534 1.165,-5.007 3.387,-6.888 1.68,-1.439 5.131,-2.6 8.378,-2.6 h 20.739 c 3.316,0 6.695,1.23 8.7,3.116 2.092,1.895 3.133,4.228 3.133,6.372 z m -56.761,3.51 9.437,9.494 H 99.256 l -9.432,-9.494 z m 59.757,0 h 11.891 v 9.494 h -11.891 z"
               style="fill:#85888b;fill-opacity:1;fill-rule:evenodd;stroke:none"
               id="path30" /></g></g></g><g
         id="g12"
         transform="translate(313.2871,277.2314)"><path
           d="M 0,0 15.454,11.513 H -11.483 Z"
           style="fill:#c64f15;fill-opacity:1;fill-rule:nonzero;stroke:none"
           id="path14" /></g></g></g></svg>
