<svg width="153" height="34" viewBox="0 0 153 34" fill="none" xmlns="http://www.w3.org/2000/svg">
<path d="M57.6322 21.2417C54.9658 21.2417 52.304 20.2829 49.7269 19.3551C47.1991 18.445 44.5818 17.5039 42.0182 17.5039C40.1647 17.5039 38.4899 17.9878 36.8999 18.9866V23.2438C38.4944 22.316 40.1737 21.8588 42.0182 21.8588C44.689 21.8588 47.3554 22.8177 49.9324 23.7455C52.4603 24.6555 55.073 25.5966 57.6322 25.5966C59.7581 25.5966 61.6652 24.9485 63.4606 23.6212V19.3995C61.6607 20.638 59.7492 21.2373 57.6322 21.2417Z" fill="white"/>
<path d="M49.7269 10.9519C47.1991 10.0418 44.5818 9.10071 42.0182 9.10071C40.1647 9.10071 38.4899 9.58458 36.8999 10.5834V14.8451C38.4944 13.9128 40.1737 13.46 42.0182 13.46C44.689 13.46 47.3554 14.4189 49.9324 15.3467C52.4603 16.2567 55.073 17.1978 57.6322 17.1978C59.7537 17.1978 61.6652 16.5497 63.4606 15.2224V10.9963C61.6607 12.2348 59.7492 12.8341 57.6322 12.8341C54.9658 12.8385 52.304 11.8797 49.7269 10.9519Z" fill="white"/>
<path d="M49.9324 32.1491C52.4603 33.0591 55.073 34.0002 57.6322 34.0002C59.7581 34.0002 61.6652 33.3521 63.4606 32.0248V27.8031C61.6607 29.0416 59.7492 29.6409 57.6322 29.6409C54.9658 29.6409 52.304 28.682 49.7269 27.7542C47.1991 26.8442 44.5818 25.9031 42.0182 25.9031C40.1647 25.9031 38.4899 26.387 36.8999 27.3858V31.643C38.4944 30.7152 40.1737 30.258 42.0182 30.258C44.689 30.2624 47.3509 31.2213 49.9324 32.1491Z" fill="white"/>
<path d="M125.859 12.9315C124.045 11.2712 121.656 10.4632 118.552 10.4632C115.443 10.4632 113.054 11.2712 111.245 12.9315C108.396 15.5373 108.07 19.0931 108.07 21.5391C108.07 23.9851 108.4 27.5409 111.245 30.1468C113.058 31.807 115.448 32.615 118.552 32.615C121.656 32.615 124.045 31.807 125.859 30.1468C128.699 27.5409 129.03 23.9851 129.03 21.5391C129.03 19.0931 128.699 15.5417 125.859 12.9315ZM123.014 23.2482C123.014 24.3047 123.018 26.076 121.727 27.3101C120.977 28.0115 119.834 28.4465 118.744 28.4465C117.65 28.4465 116.506 28.0115 115.756 27.3101C114.47 26.076 114.47 24.3092 114.474 23.2526V19.4394C114.47 18.3828 114.47 16.616 115.756 15.3819C116.506 14.6805 117.65 14.2499 118.744 14.2499C119.838 14.2499 120.982 14.6849 121.727 15.3819C123.018 16.6204 123.014 18.3917 123.014 19.4482V23.2482ZM97.7079 31.8958V15.2665L95.3855 10.8006H103.568V31.9002H97.7079V31.8958ZM140.919 14.9868C140.392 15.2665 139.753 15.7282 139.329 16.07L139.217 16.1588V31.8958H133.357V14.9913L131.048 10.7962H138.114V13.0691L138.61 12.6074C139.387 11.8838 140.11 11.3999 140.963 11.0359C142.16 10.481 143.192 10.2768 144.769 10.2768C147.413 10.2768 149.382 10.9249 150.794 12.2611C152.996 14.3254 152.996 16.9667 152.996 18.5471V31.9047H147.136V18.0144C147.136 17.091 147.136 16.0433 146.198 15.1644C145.559 14.574 144.612 14.2499 143.527 14.2499C142.451 14.2499 141.571 14.645 140.919 14.9868ZM24.1445 14.2055C22.7108 14.2055 21.5451 15.0401 20.6876 15.7681L20.5849 15.8569V31.9002H14.7252V17.4817C14.7252 16.9978 14.7252 15.8702 13.8945 15.0445C13.3853 14.4941 12.6395 14.2011 11.7328 14.2011C10.3036 14.2011 9.13346 15.0356 8.27594 15.7637L8.17322 15.8525V31.8958H2.31351V14.9913L0 10.7962H7.06559V13.0158L8.03477 12.2256C9.62921 10.916 11.505 10.2768 13.765 10.2768C15.9891 10.2768 17.6416 11.0093 18.9681 12.5852L19.1914 12.8515L19.4192 12.5852C20.7457 11.0315 22.5054 10.2768 24.8055 10.2768C28.5393 10.2768 32.9921 11.6485 32.9921 18.1919V31.9002H27.1324V17.4817C27.1324 16.9578 27.1324 15.8613 26.3062 15.0445C25.7925 14.4941 25.0467 14.2055 24.1445 14.2055ZM83.7375 14.4008L79.3204 16.4384C78.8247 15.4751 77.8644 14.9113 76.6987 14.9113C75.7072 14.9113 74.7738 15.3242 74.2602 15.9812C73.6572 16.7092 73.3535 17.8812 73.3535 19.4615V31.8958H67.4983V10.7962H72.3844V14.0812L73.4027 12.6917C73.8046 12.1235 75.3544 10.2724 78.4584 10.2724C79.0658 10.2724 80.9104 10.2724 82.1654 11.2179C82.755 11.6752 83.7152 12.6784 83.7375 14.4008ZM103.568 4.51469C103.568 6.46795 102.027 7.99504 100.062 7.99504C98.0965 7.99504 96.5556 6.46351 96.5556 4.51469C96.5556 2.56143 98.0965 1.03434 100.062 1.03434C102.031 1.03434 103.568 2.56143 103.568 4.51469ZM91.5133 0V31.8958H85.6536V0H91.5133Z" fill="white"/>
</svg>
