<?xml version="1.0" encoding="UTF-8"?>
<!DOCTYPE svg PUBLIC "-//W3C//DTD SVG 1.1//EN" "http://www.w3.org/Graphics/SVG/1.1/DTD/svg11.dtd">
<!-- Creator: CorelDRAW 2018 (64-Bit) -->
<svg xmlns="http://www.w3.org/2000/svg" xml:space="preserve" width="150px" height="18px" version="1.1" style="shape-rendering:geometricPrecision; text-rendering:geometricPrecision; image-rendering:optimizeQuality; fill-rule:evenodd; clip-rule:evenodd"
viewBox="0 0 150 18"
 xmlns:xlink="http://www.w3.org/1999/xlink">
 <defs>
  <style type="text/css">
   <![CDATA[
    .fil0 {fill:#F27D00}
   ]]>
  </style>
 </defs>
 <g id="Layer_x0020_1">
  <metadata id="CorelCorpID_0Corel-Layer"/>
  <path class="fil0" d="M57.63 16.96l14.6 0c2.01,0 3.65,-1.64 3.65,-3.64l0 -8.63c0,-2.01 -1.64,-3.65 -3.65,-3.65l-14.6 0c-2,0 -3.64,1.64 -3.64,3.65l0 8.63c0,2 1.64,3.64 3.64,3.64zm-15.07 -8.04l10.09 7.6 -0.15 0.44 -5.57 0 -0.1 -0.03 -8.69 -6.53 0 6.37 -0.19 0.19 -4.4 0 -0.19 -0.19 0 -15.54 0.19 -0.19 4.4 0 0.19 0.19 0 6.29 8.08 -6.45 0.1 -0.03 5.4 0 0.16 0.44 -9.32 7.44zm-37.78 -2.14l0 9.99 -0.19 0.19 -4.4 0 -0.19 -0.19 0 -15.54 0.19 -0.19 4.33 0 0.11 0.04 10.93 10.14 0 -9.99 0.2 -0.19 4.39 0 0.2 0.19 0 15.54 -0.2 0.19 -4.32 0 -0.12 -0.04 -10.93 -10.14zm19.68 9.99l0 -15.54 0.2 -0.19 4.39 0 0.2 0.19 0 15.54 -0.2 0.19 -4.39 0 -0.2 -0.19zm73.89 -9.37l-5.97 6.75 -0.13 0.06 -2 0 -0.13 -0.06 -5.96 -6.75 0 9.37 -0.19 0.19 -4.4 0 -0.19 -0.19 0 -15.54 0.19 -0.19 4.33 0 0.13 0.05 7.22 8.18 7.22 -8.18 0.13 -0.05 4.33 0 0.2 0.19 0 15.54 -0.2 0.19 -4.39 0 -0.19 -0.19 0 -9.37zm37.42 1.23l-7.78 -7.17 0.16 -0.42 4.96 0 0.12 0.04 5.23 4.82 4.73 -4.81 0.12 -0.05 4.96 0 0.17 0.4 -7.05 7.17 8.61 7.94 -0.16 0.41 -4.97 0 -0.11 -0.04 -6.05 -5.58 -5.47 5.57 -0.12 0.05 -4.96 0 -0.17 -0.4 7.78 -7.93zm-16.15 4.44l-8.1 0 -2.15 3.8 -0.15 0.09 -4.67 0 -0.19 -0.32 8.78 -15.51 0.15 -0.09 4.53 0 0.16 0.09 8.78 15.51 -0.19 0.32 -4.67 0 -0.16 -0.09 -2.12 -3.8zm-1.73 -3l-2.33 -4.12 -2.34 4.12 4.67 0zm-46.31 -0.28l0 -5.34 -13.28 0 0 5.34 1.44 0 0.2 0.19 0 1.75 1.5 0 0.19 0.19 0 1.63 6.61 0 0 -1.63 0.19 -0.19 1.51 0 0 -1.75 0.19 -0.19 1.45 0z"/>
 </g>
</svg>
