<?xml version="1.0" encoding="UTF-8"?> <svg xmlns="http://www.w3.org/2000/svg" id="Слой_1" data-name="Слой 1" viewBox="0 0 285.81 206.85"> <defs> <style>.cls-1{fill:none;stroke:#00fe5f;stroke-miterlimit:10;}</style> </defs> <ellipse class="cls-1" cx="142.02" cy="104.92" rx="40.51" ry="93.07" transform="translate(-32.59 131.16) rotate(-45)"></ellipse> <ellipse class="cls-1" cx="133.54" cy="113.4" rx="40.51" ry="93.07" transform="translate(-41.07 127.64) rotate(-45)"></ellipse> <ellipse class="cls-1" cx="146.26" cy="100.68" rx="40.51" ry="93.07" transform="translate(-28.35 132.91) rotate(-45)"></ellipse> <ellipse class="cls-1" cx="154.74" cy="92.2" rx="40.51" ry="93.07" transform="translate(-19.87 136.43) rotate(-45)"></ellipse> <ellipse class="cls-1" cx="158.99" cy="87.96" rx="40.51" ry="93.07" transform="translate(-15.63 138.18) rotate(-45)"></ellipse> <ellipse class="cls-1" cx="150.5" cy="96.44" rx="40.51" ry="93.07" transform="translate(-24.11 134.67) rotate(-45)"></ellipse> <ellipse class="cls-1" cx="137.78" cy="109.16" rx="40.51" ry="93.07" transform="translate(-36.83 129.4) rotate(-45)"></ellipse> <ellipse class="cls-1" cx="120.82" cy="126.12" rx="40.51" ry="93.07" transform="translate(-53.8 122.37) rotate(-45)"></ellipse> <ellipse class="cls-1" cx="129.3" cy="117.64" rx="40.51" ry="93.07" transform="translate(-45.31 125.89) rotate(-45)"></ellipse> <ellipse class="cls-1" cx="125.06" cy="121.88" rx="40.51" ry="93.07" transform="translate(-49.56 124.13) rotate(-45)"></ellipse> <ellipse class="cls-1" cx="163.23" cy="83.72" rx="40.51" ry="93.07" transform="translate(-11.39 139.94) rotate(-45)"></ellipse> </svg> 