<?xml version="1.0" encoding="UTF-8"?> <svg xmlns="http://www.w3.org/2000/svg" id="Слой_1" data-name="Слой 1" viewBox="0 0 285.81 206.85"> <defs> <style>.cls-1{fill:none;stroke:#b2a1ff;stroke-miterlimit:10;}</style> </defs> <polygon class="cls-1" points="133.74 20.25 105.27 69.56 76.8 20.26 48.82 36.41 77.29 85.72 20.35 85.72 20.35 118.03 77.29 118.03 48.82 167.34 76.8 183.49 105.27 134.18 133.76 183.46 161.74 167.29 133.25 118.03 190.18 118.03 190.18 85.72 133.24 85.72 161.71 36.41 133.74 20.25"></polygon> <polygon class="cls-1" points="213.93 20.25 185.46 69.56 156.99 20.26 129.01 36.41 157.48 85.72 100.54 85.72 100.54 118.03 157.48 118.03 129.01 167.34 156.99 183.49 185.46 134.18 213.95 183.46 241.93 167.29 213.44 118.03 270.37 118.03 270.37 85.72 213.44 85.72 241.91 36.41 213.93 20.25"></polygon> </svg> 