<?xml version="1.0" encoding="UTF-8" standalone="no"?>
<svg
   viewBox="0 0 472 40"
   fill="none"
   version="1.1"
   id="svg136"
   sodipodi:docname="positivtechnology.svg"
   inkscape:version="1.2.1 (9c6d41e410, 2022-07-14)"
   xmlns:inkscape="http://www.inkscape.org/namespaces/inkscape"
   xmlns:sodipodi="http://sodipodi.sourceforge.net/DTD/sodipodi-0.dtd"
   xmlns="http://www.w3.org/2000/svg"
   xmlns:svg="http://www.w3.org/2000/svg">
  <defs
     id="defs140" />
  <sodipodi:namedview
     id="namedview138"
     pagecolor="#ffffff"
     bordercolor="#000000"
     borderopacity="0.25"
     inkscape:showpageshadow="2"
     inkscape:pageopacity="0.0"
     inkscape:pagecheckerboard="0"
     inkscape:deskcolor="#d1d1d1"
     showgrid="false"
     inkscape:zoom="3.9025424"
     inkscape:cx="235.48751"
     inkscape:cy="19.986971"
     inkscape:window-width="2560"
     inkscape:window-height="1377"
     inkscape:window-x="1912"
     inkscape:window-y="-8"
     inkscape:window-maximized="1"
     inkscape:current-layer="svg136" />
  <path
     fill-rule="evenodd"
     clip-rule="evenodd"
     d="M21.947 15.766c0-3.205 0-4.987-1.164-6.151C19.619 8.45 17.837 8.45 14.63 8.45H7.316c-3.206 0-4.988 0-6.152 1.164C0 10.779 0 12.56 0 15.766v7.316c0 3.205 0 4.988 1.164 6.152 1.164 1.163 2.946 1.163 6.152 1.163h7.315c3.206 0 4.988 0 6.152-1.163 1.164-1.164 1.164-2.947 1.164-6.152v-7.316Z"
     fill="red"
     id="path132" />
  <path
     fill-rule="evenodd"
     clip-rule="evenodd"
     d="M109.458 24.066c0 3.615-3.147 6.762-9.559 6.762-8.176 0-9.928-5.687-9.928-7.285h5.808c0 1.168 1.232 2.614 4.12 2.614 2.889 0 3.905-1.027 3.905-2.091 0-1.064-.482-1.903-2.892-2.29l-3.473-.532c-4.519-.731-7.191-2.68-7.191-6.338s3.135-6.886 9.16-6.886c6.699 0 9.62 4.452 9.62 7.285h-5.808c0-1.45-1.337-2.614-3.813-2.614-2.475 0-3.505.88-3.505 2.215 0 1.032.807 1.574 2.83 1.876l3.657.56c4.518.687 7.069 2.808 7.069 6.724ZM129.857 8.45h8.969v5.404h-8.969v6.708c0 3.195 1.37 4.431 4.425 4.431h4.544v5.404h-5.643c-6.188 0-9.141-3.218-9.141-9.147V0h5.815v8.45ZM50.759 25.424c-3.168 0-5.44-2.523-5.44-6 0-3.476 2.272-6 5.44-6 3.19 0 5.506 2.524 5.506 6 0 3.477-2.316 6-5.506 6ZM52.024 8.02c-2.482 0-4.748.91-6.203 2.542v.001h-.502V8.451h-5.815v30.397h5.815V28.287h.502c1.347 1.469 3.532 2.541 6.203 2.541 5.977 0 10.055-4.808 10.055-11.404 0-6.595-4.078-11.404-10.055-11.404Zm133.154 4.892c2.516 0 4.498 1.614 5.287 4.067h-10.538c.784-2.453 2.752-4.067 5.251-4.067Zm0-4.892c-6.282 0-11.371 4.809-11.371 11.404 0 6.556 4.92 11.404 11.555 11.404 4.923 0 9.344-2.805 10.826-7.166h-6.213c-.934 1.45-2.739 2.275-4.613 2.275-2.945 0-5.038-1.942-5.63-4.805h16.74l-.012-.017c.076-.55.128-1.11.128-1.69 0-6.596-5.089-11.405-11.41-11.405Zm-42.629 22.378h5.814V8.45h-5.814v21.947Zm0-24.994h5.814V0h-5.814v5.404Zm-29.451 24.994h5.815V8.45h-5.815v21.947Zm0-24.994h5.815V0h-5.815v5.404Zm-37.017 20.02c-3.22 0-5.557-2.523-5.557-6 0-3.476 2.337-6 5.556-6 3.243 0 5.596 2.524 5.596 6 0 3.533-2.3 6-5.596 6Zm0-17.404c-6.282 0-11.372 4.808-11.372 11.404 0 6.556 5.01 11.404 11.371 11.404 6.401 0 11.41-4.808 11.41-11.404S82.401 8.02 76.08 8.02Zm91.081.43h6.066l-6.62 21.948h-8.812l-6.62-21.947h6.065l4.5 16.543h.922l4.499-16.543Zm304.289 15.616c0 3.615-3.148 6.762-9.559 6.762-8.177 0-9.928-5.687-9.928-7.285h5.808c0 1.168 1.231 2.614 4.12 2.614 2.888 0 3.905-1.027 3.905-2.091 0-1.064-.483-1.903-2.893-2.29l-3.473-.532c-4.518-.731-7.191-2.68-7.191-6.338s3.136-6.886 9.16-6.886c6.7 0 9.62 4.452 9.62 7.285h-5.807c0-1.45-1.338-2.614-3.813-2.614s-3.506.88-3.506 2.215c0 1.032.807 1.574 2.83 1.876l3.658.56c4.518.687 7.069 2.808 7.069 6.724Zm-76.176-4.857c0-3.41 2.315-5.887 5.506-5.887 3.168 0 5.439 2.475 5.44 5.885v.004c-.001 3.41-2.272 5.885-5.44 5.885-3.191 0-5.506-2.476-5.506-5.887Zm10.946-8.646h-.459l-.043-.049c-1.456-1.6-3.721-2.494-6.203-2.494-5.977 0-10.055 4.718-10.055 11.189s4.078 11.189 10.055 11.189c2.671 0 4.855-1.052 6.203-2.494h.502v2.262c0 3.194-1.37 4.43-4.426 4.43h-8.979V40h10.079c6.187 0 9.141-3.217 9.141-9.146V8.451h-5.815v2.112Zm-80.693 6.564v13.27h-5.814V18.01c0-2.726-1.932-4.585-4.676-4.585s-4.677 1.859-4.677 4.585v12.389h-5.814V8.45h5.814v2.112h.438c1.476-1.66 3.674-2.543 6.187-2.543 5.028 0 8.542 3.731 8.542 9.107Zm29.216 13.27h5.815V0h-5.815v30.398Zm83.163-17.485c2.516 0 4.498 1.614 5.288 4.067h-10.539c.785-2.453 2.752-4.067 5.251-4.067Zm0-4.892c-6.281 0-11.37 4.809-11.37 11.404 0 6.556 4.919 11.404 11.554 11.404 4.923 0 9.345-2.805 10.826-7.166h-6.212c-.935 1.45-2.74 2.275-4.614 2.275-2.944 0-5.038-1.942-5.63-4.805h16.74l-.011-.017c.075-.55.127-1.11.127-1.69 0-6.596-5.089-11.405-11.41-11.405Zm-20.742 22.378h5.814V8.45h-5.814v21.947Zm0-24.994h5.814V0h-5.814v5.404Zm-41.927 20.02c-3.22 0-5.556-2.523-5.556-6 0-3.476 2.336-6 5.556-6 3.242 0 5.596 2.524 5.596 6 0 3.533-2.301 6-5.596 6Zm0-17.404c-6.282 0-11.37 4.808-11.37 11.404 0 6.556 5.009 11.404 11.37 11.404 6.401 0 11.41-4.808 11.41-11.404S381.559 8.02 375.238 8.02Zm-35.212 17.404c-3.22 0-5.556-2.523-5.556-6 0-3.476 2.336-6 5.556-6 3.242 0 5.595 2.524 5.595 6 0 3.533-2.301 6-5.595 6Zm-.001-17.404c-6.281 0-11.37 4.808-11.37 11.404 0 6.556 5.009 11.404 11.37 11.404 6.402 0 11.411-4.808 11.411-11.404S346.347 8.02 340.025 8.02Zm-123.52.43h8.97v5.405h-8.97v6.708c0 3.195 1.37 4.431 4.426 4.431h4.544v5.404h-5.644c-6.187 0-9.141-3.218-9.141-9.147V0h5.815v8.45Zm53.038 13.375h5.998c-.767 5.26-5.317 9.003-10.878 9.003-6.362 0-11.279-4.848-11.279-11.404 0-6.595 4.996-11.404 11.279-11.404 5.491 0 10.092 3.46 10.874 8.82h-6.012c-.662-2.242-2.465-3.416-4.862-3.416-3.22 0-5.465 2.524-5.465 6 0 3.477 2.245 6 5.465 6 2.445 0 4.326-1.384 4.88-3.6Zm30.288-4.698v13.27h-5.814V18.01c0-2.726-1.933-4.585-4.676-4.585-2.745 0-4.677 1.859-4.677 4.585v12.389h-5.814V0h5.814v10.563h.438c1.477-1.66 3.674-2.543 6.187-2.543 5.028 0 8.542 3.731 8.542 9.107Zm-60.67-4.215c2.516 0 4.498 1.614 5.287 4.067h-10.537c.784-2.453 2.752-4.067 5.25-4.067Zm0-4.892c-6.281 0-11.37 4.809-11.37 11.404 0 6.556 4.919 11.404 11.555 11.404 4.923 0 9.344-2.805 10.825-7.166h-6.212c-.935 1.45-2.739 2.275-4.613 2.275-2.945 0-5.038-1.942-5.631-4.805h16.74l-.011-.017c.075-.55.127-1.11.127-1.69 0-6.596-5.089-11.405-11.41-11.405Z"
     fill="#212121"
     id="path134"
     style="fill:#ffffff;fill-opacity:1" />
</svg>
