<svg width="146" height="40" viewBox="0 0 146 40" fill="none" xmlns="http://www.w3.org/2000/svg">
<path d="M38.4606 0H0V23.7701H12.264V10.966H18.7297L26.4886 23.7701H39.3991L29.93 9.42032C33.8929 7.56132 37.0006 4.15664 38.4606 0Z" fill="#DA2128"/>
<path d="M44.3631 0V23.7701H62.634C74.2097 23.7701 83.8457 13.5352 85.9314 0H44.3631Z" fill="#DA2128"/>
<path d="M90.4783 0L98.258 23.7701H109.25L118.156 1.5248L127.479 23.7701H138.471L146 0H90.4783Z" fill="#DA2128"/>
<path d="M0.271671 34.9032C0.271671 31.9581 2.33653 29.8275 5.1731 29.8275C7.30053 29.8275 9.19853 31.2896 9.65739 33.274L8.46853 33.4411C8.11396 31.9789 6.73739 30.9137 5.1731 30.9137C3.02481 30.9137 1.50224 32.5847 1.50224 34.9032C1.50224 37.2217 3.04567 38.9136 5.1731 38.9136C6.69567 38.9136 8.0931 37.8692 8.46853 36.4698L9.63653 36.6995C9.15681 38.6003 7.27967 39.9789 5.1731 39.9789C2.31567 39.9998 0.250814 37.8692 0.271671 34.9032Z" fill="#424242"/>
<path d="M17.7494 34.9032C17.7494 31.9372 19.8769 29.8275 22.8594 29.8275C25.8629 29.8275 27.9694 31.9372 27.9694 34.9032C27.9694 37.8901 25.842 39.9789 22.8594 39.9789C19.8769 39.9998 17.7494 37.8901 17.7494 34.9032ZM26.7597 34.9032C26.7597 32.5847 25.1537 30.9137 22.8803 30.9137C20.6069 30.9137 18.98 32.5847 18.98 34.9032C18.98 37.2217 20.6069 38.9136 22.8803 38.9136C25.1329 38.9136 26.7597 37.2426 26.7597 34.9032Z" fill="#424242"/>
<path d="M36.7294 30.1827H38.6691L41.7977 37.9529H41.9229L45.0723 30.1827H46.9911V39.6657H45.7606V31.7284H45.6354L42.4443 39.6657H41.2763L38.0852 31.7493H37.96V39.6657H36.7294V30.1827Z" fill="#424242"/>
<path d="M56.2309 30.1827H60.006C62.0709 30.1827 63.4266 31.2689 63.4057 33.0861C63.4057 34.8825 62.0291 35.9895 60.006 35.9895H57.4197V39.6657H56.2309V30.1827ZM60.006 34.9033C61.3826 34.9033 62.196 34.1932 62.196 33.0861C62.196 31.9791 61.3826 31.248 60.006 31.248H57.4197V34.9033H60.006Z" fill="#424242"/>
<path d="M71.8321 36.0104V30.1827H73.0626V36.0104C73.0626 37.7023 74.1681 38.9138 75.7323 38.9138C77.2758 38.9138 78.3812 37.7023 78.3812 36.0104V30.1827H79.6118V36.0104C79.6118 38.3289 78.0058 39.9999 75.7532 39.9999C73.4798 39.9999 71.8321 38.3289 71.8321 36.0104Z" fill="#424242"/>
<path d="M90.812 31.248H87.6835V30.1619H95.1712V31.248H92.0218V39.6449H90.7912V31.248H90.812Z" fill="#424242"/>
<path d="M103.535 30.1827H110.042V31.2689H104.786V34.2349H109.5V35.3211H104.765V38.6213H110.167V39.7075H103.535V30.1827Z" fill="#424242"/>
<path d="M118.781 30.1827H122.911C124.976 30.1827 126.332 31.3107 126.332 33.0652C126.332 34.6736 125.059 35.8015 123.307 35.8851H123.141L126.582 39.6657H125.039L121.764 35.9477H120.012V39.6657H118.781V30.1827ZM122.89 34.8825C124.246 34.8825 125.08 34.1932 125.08 33.0652C125.08 31.9582 124.246 31.2689 122.89 31.2689H119.991V34.8825H122.89Z" fill="#424242"/>
<path d="M134.508 36.5742H135.717C135.738 38.0364 136.76 38.9136 138.533 38.9136C140.077 38.9136 140.973 38.2452 140.973 37.18C140.973 35.8849 139.659 35.6552 138.241 35.4254C136.531 35.1539 134.654 34.7152 134.654 32.6473C134.654 30.9346 135.947 29.8275 138.241 29.8275C140.556 29.8275 141.975 31.039 141.995 33.0442H140.807C140.807 31.7074 139.868 30.9137 138.241 30.9137C136.719 30.9137 135.884 31.5821 135.884 32.5847C135.884 33.8379 137.157 34.0677 138.554 34.2766C140.264 34.569 142.225 34.945 142.225 37.0964C142.225 38.8719 140.869 39.9789 138.554 39.9789C136.03 39.9998 134.508 38.6839 134.508 36.5742Z" fill="#424242"/>
</svg>
