<svg id="Слой_1" data-name="Слой 1" xmlns="http://www.w3.org/2000/svg" viewBox="0 0 89.95 56.02"><title>Новые технологии безопасности</title><path d="M87.33,6.66,90,0H13.19L10.58,6.66H42.46l-3.64,9.21H26.05L28,11H17.67l-1.92,4.88H7L4.48,22.6h8.79L0,56H10.3L23.57,22.6h12.6L23,56c15.49,0,32.64,1,46.53-5.46,14.29-6.61,18.35-21.21,14-27.61-5.56-8.21-12.84-7-34.95-7l3.56-9.21ZM35.72,49.16,46,22.6c15,0,27.11-1.36,30.18,4.52,2.69,5.17-2.25,13.37-11,17.57C56.61,48.78,45.51,48.92,35.72,49.16Z" fill="#fff"/></svg>