<?xml version="1.0" encoding="UTF-8" standalone="no"?>
<svg
   width="265"
   height="46"
   viewBox="0 0 265 46"
   fill="none"
   version="1.1"
   id="svg196"
   sodipodi:docname="searchInform_logo_whitetag.svg"
   inkscape:version="1.2.1 (9c6d41e410, 2022-07-14)"
   xmlns:inkscape="http://www.inkscape.org/namespaces/inkscape"
   xmlns:sodipodi="http://sodipodi.sourceforge.net/DTD/sodipodi-0.dtd"
   xmlns="http://www.w3.org/2000/svg"
   xmlns:svg="http://www.w3.org/2000/svg">
  <defs
     id="defs200" />
  <sodipodi:namedview
     id="namedview198"
     pagecolor="#ffffff"
     bordercolor="#000000"
     borderopacity="0.25"
     inkscape:showpageshadow="2"
     inkscape:pageopacity="0.0"
     inkscape:pagecheckerboard="0"
     inkscape:deskcolor="#d1d1d1"
     showgrid="false"
     inkscape:zoom="6.9509434"
     inkscape:cx="132.5"
     inkscape:cy="23.018458"
     inkscape:window-width="2560"
     inkscape:window-height="1377"
     inkscape:window-x="1912"
     inkscape:window-y="-8"
     inkscape:window-maximized="1"
     inkscape:current-layer="svg196" />
  <path
     d="M4.00504 16.5208C4.22754 19.3392 6.37839 21.2675 9.79009 21.2675C12.6084 21.2675 14.6851 20.0067 14.6851 17.7075C14.6851 15.1858 12.1634 14.5925 8.38091 13.925C4.37587 13.1833 0.593339 11.8483 0.593339 7.10156C0.593339 2.87402 4.00504 0.0556641 9.12258 0.0556641C14.611 0.0556641 18.0968 3.02236 18.2452 7.4724H14.3143C14.0176 5.02488 12.0893 3.39319 9.12258 3.39319C6.37839 3.39319 4.52421 4.57987 4.52421 6.80489C4.52421 9.25241 6.97173 9.77159 10.7543 10.4391C14.7593 11.1808 18.616 12.4416 18.616 17.1883C18.616 21.49 14.9818 24.5309 9.71592 24.5309C3.78253 24.5309 0.148335 21.2675 0 16.4466L4.00504 16.5208Z"
     fill="#FF6D00"
     id="path132" />
  <path
     d="M22.9922 0.27832H38.7157V3.76419H26.9972V10.4392H36.7131V13.8509H26.9972V20.8227H39.1607V24.3085H22.9922V0.27832Z"
     fill="#FF6D00"
     id="path134" />
  <path
     d="M41.6074 24.3085L50.6558 0.27832H55.4025L64.3768 24.3827H60.0751L57.7759 18.4493H47.9116L45.6866 24.3827H41.6074V24.3085ZM49.0242 15.0376H56.6634L52.8809 4.50586L49.0242 15.0376Z"
     fill="#FF6D00"
     id="path136" />
  <path
     d="M67.3438 0.27832H76.8372C81.8805 0.27832 85.2181 3.24501 85.2181 7.91756C85.2181 11.1809 83.3639 13.7026 80.5455 14.741L85.6631 24.3085H81.2872L76.6147 15.5568H71.3488V24.3085H67.4179V0.27832H67.3438ZM71.3488 3.69002V12.1451H76.5405C79.3589 12.1451 81.213 10.5134 81.213 7.91756C81.213 5.3217 79.3589 3.69002 76.5405 3.69002H71.3488Z"
     fill="#FF6D00"
     id="path138" />
  <path
     d="M88.2598 12.2938C88.2598 4.9512 92.784 0.0561523 99.904 0.0561523C105.392 0.0561523 109.397 3.39368 110.139 8.43706H106.06C105.244 5.3962 103.019 3.54202 99.7557 3.54202C95.1573 3.54202 92.339 7.17622 92.339 12.2938C92.339 17.4113 95.0832 21.0455 99.6074 21.0455C102.945 21.0455 105.244 19.1913 105.986 16.1505H110.065C109.323 21.268 105.244 24.5314 99.6074 24.5314C92.6356 24.5314 88.2598 19.7105 88.2598 12.2938Z"
     fill="#FF6D00"
     id="path140" />
  <path
     d="M114.145 0.27832H118.075V10.3651H129.275V0.27832H133.206V24.3827H129.275V13.8509H118.075V24.3085H114.145V0.27832Z"
     fill="#FF6D00"
     id="path142" />
  <path
     d="M138.619 0.27832H142.55V24.3827H138.619V0.27832Z"
     fill="#00B0FF"
     id="path144" />
  <path
     d="M147.891 24.3085V0.27832H151.525L163.243 17.3368V0.27832H167.1V24.3827H163.466L151.747 7.32422V24.3827H147.891V24.3085Z"
     fill="#00B0FF"
     id="path146" />
  <path
     d="M172.514 0.27832H187.866V3.76419H176.445V10.7359H185.864V14.1476H176.445V24.3085H172.514V0.27832V0.27832Z"
     fill="#00B0FF"
     id="path148" />
  <path
     d="M217.236 0.27832H226.73C231.773 0.27832 235.111 3.24501 235.111 7.91756C235.111 11.1809 233.256 13.7026 230.438 14.741L235.556 24.3085H231.18L226.507 15.5568H221.241V24.3085H217.31V0.27832H217.236ZM221.241 3.69002V12.1451H226.433C229.251 12.1451 231.106 10.5134 231.106 7.91756C231.106 5.3217 229.251 3.69002 226.433 3.69002H221.241Z"
     fill="#00B0FF"
     id="path150" />
  <path
     d="M239.561 0.27832H244.678L252.391 19.2652L259.957 0.27832H265V24.3827H261.217V6.58254L254.023 24.3085H250.686L243.491 6.58254V24.3085H239.561V0.27832Z"
     fill="#00B0FF"
     id="path152" />
  <path
     d="M0 37.0835H1.4086V45.4522H0V37.0835Z"
     fill="black"
     id="path154"
     style="fill:#ffffff" />
  <path
     d="M4.22656 45.4522V37.0835H5.46944L9.52952 43.0493V37.0835H10.8553V45.4522H9.61238L5.5523 39.4864V45.4522H4.22656Z"
     fill="black"
     id="path156"
     style="fill:#ffffff" />
  <path
     d="M13.7539 37.0835H19.1397V38.3264H15.1625V40.7293H18.4769V41.8893H15.1625V45.4522H13.7539V37.0835Z"
     fill="black"
     id="path158"
     style="fill:#ffffff" />
  <path
     d="M24.857 45.5351C22.454 45.5351 20.7969 43.7122 20.7969 41.3093C20.7969 38.9064 22.454 37.0835 24.857 37.0835C27.2599 37.0835 28.917 38.9064 28.917 41.3093C28.917 43.7122 27.2599 45.5351 24.857 45.5351ZM24.857 44.3751C26.4313 44.3751 27.5084 43.1322 27.5084 41.3093C27.5084 39.5693 26.4313 38.2435 24.857 38.2435C23.2826 38.2435 22.2055 39.4864 22.2055 41.3093C22.2055 43.0493 23.1998 44.3751 24.857 44.3751Z"
     fill="black"
     id="path160"
     style="fill:#ffffff" />
  <path
     d="M31.404 37.0835H34.7183C36.4584 37.0835 37.6184 38.1607 37.6184 39.735C37.6184 40.895 36.9555 41.7236 35.9612 42.1379L37.7013 45.4522H36.1269L34.4698 42.3864H32.6469V45.4522H31.2383V37.0835H31.404ZM32.7297 38.3264V41.3093H34.5526C35.5469 41.3093 36.2098 40.7293 36.2098 39.8178C36.2098 38.9064 35.5469 38.3264 34.5526 38.3264H32.7297V38.3264Z"
     fill="black"
     id="path162"
     style="fill:#ffffff" />
  <path
     d="M40.1035 37.0835H41.9264L44.5779 43.7122L47.2294 37.0835H48.9694V45.4522H47.6437V39.3207L45.1579 45.4522H43.9979L41.5121 39.3207V45.4522H40.1864V37.0835H40.1035Z"
     fill="black"
     id="path164"
     style="fill:#ffffff" />
  <path
     d="M51.041 45.4522L54.1896 37.0835H55.8468L58.9954 45.4522H57.504L56.6754 43.3808H53.1953L52.4496 45.4522H51.041ZM53.6096 42.2207H56.2611L54.9354 38.575L53.6096 42.2207Z"
     fill="black"
     id="path166"
     style="fill:#ffffff" />
  <path
     d="M59.4102 37.0835H65.956V38.3264H63.3874V45.5351H61.9788V38.3264H59.4102V37.0835V37.0835Z"
     fill="black"
     id="path168"
     style="fill:#ffffff" />
  <path
     d="M68.1094 37.0835H69.518V45.4522H68.1094V37.0835Z"
     fill="black"
     id="path170"
     style="fill:#ffffff" />
  <path
     d="M76.064 45.5351C73.6611 45.5351 72.0039 43.7122 72.0039 41.3093C72.0039 38.9064 73.6611 37.0835 76.064 37.0835C78.4669 37.0835 80.1241 38.9064 80.1241 41.3093C80.1241 43.7122 78.4669 45.5351 76.064 45.5351ZM76.064 44.3751C77.6383 44.3751 78.7155 43.1322 78.7155 41.3093C78.7155 39.5693 77.6383 38.2435 76.064 38.2435C74.4897 38.2435 73.4125 39.4864 73.4125 41.3093C73.4125 43.0493 74.4897 44.3751 76.064 44.3751Z"
     fill="black"
     id="path172"
     style="fill:#ffffff" />
  <path
     d="M82.6113 45.4522V37.0835H83.8542L87.9143 43.0493V37.0835H89.24V45.4522H87.9971L83.9371 39.4864V45.4522H82.6113Z"
     fill="black"
     id="path174"
     style="fill:#ffffff" />
  <path
     d="M97.3586 42.7173C97.4415 43.7116 98.1872 44.3744 99.3472 44.3744C100.342 44.3744 101.087 43.9601 101.087 43.1315C101.087 42.2201 100.176 42.0544 98.8501 41.8058C97.4415 41.5572 96.1158 41.1429 96.1158 39.4858C96.1158 37.9943 97.2758 37 99.0987 37C101.004 37 102.247 38.0772 102.247 39.5686H100.839C100.756 38.74 100.093 38.16 99.0158 38.16C98.1044 38.16 97.4415 38.5743 97.4415 39.32C97.4415 40.1486 98.2701 40.3972 99.5958 40.5629C101.004 40.8115 102.33 41.2258 102.33 42.883C102.33 44.3744 101.087 45.4516 99.2644 45.4516C97.1929 45.4516 95.95 44.2916 95.8672 42.6344L97.3586 42.7173Z"
     fill="black"
     id="path176"
     style="fill:#ffffff" />
  <path
     d="M104.98 37.0835H110.449V38.3264H106.389V40.6464H109.786V41.8064H106.389V44.2093H110.615V45.4522H104.98V37.0835V37.0835Z"
     fill="black"
     id="path178"
     style="fill:#ffffff" />
  <path
     d="M112.355 41.3093C112.355 38.7407 113.93 37.0835 116.416 37.0835C118.321 37.0835 119.73 38.2435 119.978 39.9836H118.57C118.321 38.9064 117.493 38.2435 116.333 38.2435C114.758 38.2435 113.764 39.4864 113.764 41.3093C113.764 43.1322 114.758 44.3751 116.333 44.3751C117.493 44.3751 118.321 43.7122 118.57 42.635H119.978C119.73 44.3751 118.321 45.5351 116.333 45.5351C113.847 45.5351 112.355 43.8779 112.355 41.3093Z"
     fill="black"
     id="path180"
     style="fill:#ffffff" />
  <path
     d="M122.301 37.0835H123.709V41.9722C123.709 43.5465 124.289 44.3751 125.615 44.3751C126.941 44.3751 127.521 43.5465 127.521 41.9722V37.0835H128.929V41.8893C128.929 44.2922 127.769 45.5351 125.615 45.5351C123.461 45.5351 122.301 44.2922 122.301 41.8893V37.0835Z"
     fill="black"
     id="path182"
     style="fill:#ffffff" />
  <path
     d="M131.662 37.0835H134.976C136.716 37.0835 137.876 38.1607 137.876 39.735C137.876 40.895 137.213 41.7236 136.219 42.1379L137.959 45.4522H136.385L134.728 42.3864H132.905V45.4522H131.496V37.0835H131.662ZM133.07 38.3264V41.3093H134.893C135.888 41.3093 136.55 40.7293 136.55 39.8178C136.55 38.9064 135.888 38.3264 134.893 38.3264H133.07V38.3264Z"
     fill="black"
     id="path184"
     style="fill:#ffffff" />
  <path
     d="M140.445 37.0835H141.854V45.4522H140.445V37.0835Z"
     fill="black"
     id="path186"
     style="fill:#ffffff" />
  <path
     d="M143.926 37.0835H150.472V38.3264H147.903V45.5351H146.494V38.3264H143.926V37.0835V37.0835Z"
     fill="black"
     id="path188"
     style="fill:#ffffff" />
  <path
     d="M152.293 37.0835H153.95L156.187 40.895L158.425 37.0835H159.999L156.85 42.3864V45.4522H155.442V42.3864L152.293 37.0835Z"
     fill="black"
     id="path190"
     style="fill:#ffffff" />
  <path
     d="M201.364 17.3362C204.19 17.3362 206.481 15.045 206.481 12.2186C206.481 9.39228 204.19 7.10107 201.364 7.10107C198.537 7.10107 196.246 9.39228 196.246 12.2186C196.246 15.045 198.537 17.3362 201.364 17.3362Z"
     fill="#FF6D00"
     id="path192" />
  <path
     d="M211.228 19.5616C214.788 14.7408 214.417 7.99153 210.041 3.61566C205.22 -1.20522 197.507 -1.20522 192.686 3.61566C187.865 8.43654 187.865 16.1499 192.686 20.9708C197.062 25.3467 203.811 25.7175 208.632 22.1575L206.036 19.5616C202.699 21.7125 198.174 21.3417 195.282 18.375C191.944 15.0374 191.944 9.54905 195.282 6.21151C198.619 2.87398 204.108 2.87398 207.445 6.21151C210.338 9.10404 210.783 13.6282 208.632 16.9658L211.228 19.5616Z"
     fill="#FF6D00"
     id="path194" />
</svg>
