<?xml version="1.0" encoding="UTF-8" standalone="no"?>
<!-- Creator: CorelDRAW -->

<svg
   xml:space="preserve"
   width="1592px"
   height="323px"
   version="1.1"
   style="shape-rendering:geometricPrecision; text-rendering:geometricPrecision; image-rendering:optimizeQuality; fill-rule:evenodd; clip-rule:evenodd"
   viewBox="0 0 503.68 102.32"
   id="svg4934"
   sodipodi:docname="staffcop_logo_2022_letters_only_white.svg"
   inkscape:version="1.2.1 (9c6d41e410, 2022-07-14)"
   xmlns:inkscape="http://www.inkscape.org/namespaces/inkscape"
   xmlns:sodipodi="http://sodipodi.sourceforge.net/DTD/sodipodi-0.dtd"
   xmlns="http://www.w3.org/2000/svg"
   xmlns:svg="http://www.w3.org/2000/svg"><sodipodi:namedview
   id="namedview4936"
   pagecolor="#ffffff"
   bordercolor="#000000"
   borderopacity="0.25"
   inkscape:showpageshadow="2"
   inkscape:pageopacity="0.0"
   inkscape:pagecheckerboard="0"
   inkscape:deskcolor="#d1d1d1"
   showgrid="false"
   inkscape:zoom="0.84673367"
   inkscape:cx="675.53709"
   inkscape:cy="161.79822"
   inkscape:window-width="2560"
   inkscape:window-height="1377"
   inkscape:window-x="1912"
   inkscape:window-y="-8"
   inkscape:window-maximized="1"
   inkscape:current-layer="Layer_x0020_1" />
 <defs
   id="defs4926">
  <style
   type="text/css"
   id="style4924">
   <![CDATA[
    .fil0 {fill:black;fill-rule:nonzero}
   ]]>
  </style>
 </defs>
 <g
   id="Layer_x0020_1"
   inkscape:label="Layer 1">
  <metadata
   id="CorelCorpID_0Corel-Layer" />
  <path
   class="fil0"
   d="M38.2 64.23c0,-1.5 -0.92,-2.7 -2.76,-3.6 -1.84,-0.9 -4.11,-1.73 -6.82,-2.48 -2.7,-0.75 -5.67,-1.52 -8.9,-2.31 -3.23,-0.79 -6.2,-1.88 -8.9,-3.27 -2.71,-1.39 -4.98,-3.15 -6.82,-5.3 -1.84,-2.14 -2.76,-4.9 -2.76,-8.28 0,-2.78 0.62,-5.22 1.86,-7.32 1.24,-2.11 2.93,-3.89 5.07,-5.36 2.14,-1.46 4.7,-2.57 7.66,-3.32 2.97,-0.75 6.18,-1.13 9.64,-1.13 3.68,0 6.91,0.26 9.69,0.79 2.78,0.53 5.2,1.17 7.27,1.92 2.06,0.75 3.83,1.59 5.3,2.53 1.46,0.94 2.72,1.79 3.77,2.54l-6.2 10.03c-1.13,-0.68 -2.42,-1.37 -3.89,-2.09 -1.46,-0.71 -3,-1.37 -4.62,-1.97 -1.61,-0.6 -3.3,-1.09 -5.07,-1.46 -1.76,-0.38 -3.51,-0.57 -5.24,-0.57 -3.15,0 -5.71,0.41 -7.66,1.24 -1.95,0.83 -2.93,2.1 -2.93,3.83 0,1.36 0.92,2.44 2.76,3.27 1.84,0.83 4.11,1.6 6.82,2.31 2.7,0.72 5.67,1.49 8.9,2.31 3.23,0.83 6.2,1.9 8.9,3.21 2.71,1.32 4.98,3.03 6.82,5.13 1.84,2.1 2.76,4.81 2.76,8.11 0,5.71 -2.08,10.2 -6.25,13.47 -4.17,3.27 -10.35,4.9 -18.54,4.9 -6.46,0 -12.04,-0.95 -16.73,-2.87 -4.7,-1.92 -8.48,-4.15 -11.33,-6.71l6.76 -10.59c0.98,0.83 2.27,1.75 3.89,2.76 1.61,1.02 3.44,1.94 5.47,2.76 2.02,0.83 4.18,1.52 6.47,2.09 2.3,0.56 4.57,0.84 6.82,0.84 2.41,0 4.47,-0.41 6.2,-1.24 1.73,-0.82 2.59,-2.21 2.59,-4.17zm28.64 -28.39l-11.15 0 0 -12.4 11.15 0 0 -12.85 14.65 -4.17 0 17.02 29.53 0 0 12.4 -29.53 0 0 16.11c0,5.79 1.09,9.97 3.27,12.57 2.18,2.59 5.22,3.88 9.13,3.88 2.03,0 3.87,-0.24 5.52,-0.73 1.65,-0.49 3.14,-1.11 4.45,-1.86 1.32,-0.75 2.52,-1.58 3.61,-2.48 1.09,-0.9 2.08,-1.73 2.98,-2.48l6.77 10.14c-1.28,1.51 -2.88,2.88 -4.79,4.12 -1.92,1.24 -3.98,2.33 -6.2,3.27 -2.22,0.94 -4.53,1.67 -6.93,2.19 -2.4,0.53 -4.77,0.79 -7.1,0.79 -8.41,0 -14.74,-2.35 -18.99,-7.04 -4.24,-4.7 -6.37,-12.15 -6.37,-22.37l0 -16.11zm57.94 -8.57c3.01,-1.35 6.48,-2.52 10.43,-3.49 3.94,-0.98 8.62,-1.47 14.03,-1.47 3.91,0 7.23,0.47 9.97,1.41 2.75,0.94 4.96,2.27 6.65,4 1.69,1.73 2.91,3.8 3.66,6.2 0.75,2.4 1.13,5.11 1.13,8.11 0,3.83 -0.13,7.1 -0.39,9.81 -0.27,2.7 -0.4,5.11 -0.4,7.21 0,1.58 0.08,3.34 0.23,5.3 0.15,1.05 0.26,2.06 0.34,3.04l7.32 0 0 12.4 -18.71 0 -1.46 -7.67 -0.56 0c-1.51,2.33 -3.65,4.34 -6.43,6.03 -2.78,1.69 -6.53,2.54 -11.27,2.54 -5.63,0 -10.1,-1.51 -13.41,-4.51 -3.3,-3.01 -4.96,-6.99 -4.96,-11.95 0,-3.15 0.59,-5.87 1.75,-8.17 1.17,-2.29 2.85,-4.17 5.07,-5.63 2.22,-1.47 4.89,-2.56 8,-3.27 3.12,-0.71 6.59,-1.07 10.43,-1.07 1.35,0 2.78,0.08 4.28,0.23 1.5,0.15 3.34,0.3 5.52,0.45 0.15,-0.75 0.23,-1.51 0.23,-2.26l0 -2.14c0,-2.85 -0.83,-4.9 -2.48,-6.14 -1.66,-1.24 -4.1,-1.86 -7.33,-1.86 -3.83,0 -7.29,0.49 -10.37,1.47 -3.08,0.97 -5.67,1.95 -7.77,2.93l-3.5 -11.5zm19.28 41.36c3.6,0 6.31,-0.66 8.11,-1.97 1.8,-1.32 3.12,-2.73 3.94,-4.23l0 -6.76c-0.75,-0.15 -1.88,-0.32 -3.38,-0.51 -1.5,-0.19 -3.11,-0.28 -4.84,-0.28 -1.43,0 -2.86,0.13 -4.29,0.4 -1.42,0.26 -2.7,0.67 -3.83,1.23 -1.12,0.57 -2.02,1.3 -2.7,2.2 -0.68,0.9 -1.02,1.99 -1.02,3.27 0,2.1 0.62,3.74 1.86,4.9 1.24,1.17 3.29,1.75 6.15,1.75zm39.46 11.16l0 -12.4 13.29 0 0 -31.55 -13.41 0 0 -12.4 13.41 0 0 -3.16c0,-3.53 0.62,-6.57 1.86,-9.12 1.24,-2.56 2.88,-4.66 4.91,-6.31 2.02,-1.66 4.37,-2.88 7.04,-3.67 2.67,-0.79 5.43,-1.18 8.28,-1.18 5.18,0 9.45,0.43 12.79,1.3 3.34,0.86 6.11,1.93 8.28,3.21l-4.28 11.15c-1.72,-0.82 -3.59,-1.57 -5.58,-2.25 -1.99,-0.68 -4.56,-1.01 -7.72,-1.01 -4.05,0 -6.89,0.92 -8.5,2.76 -1.62,1.84 -2.43,4.6 -2.43,8.28l23.67 0 0 12.4 -23.67 0 0 31.55 23.78 0 0 12.4 -51.72 0zm60.87 0l0 -12.4 13.3 0 0 -31.55 -13.41 0 0 -12.4 13.41 0 0 -3.16c0,-3.53 0.61,-6.57 1.85,-9.12 1.24,-2.56 2.88,-4.66 4.91,-6.31 2.03,-1.66 4.37,-2.88 7.04,-3.67 2.67,-0.79 5.43,-1.18 8.28,-1.18 5.19,0 9.45,0.43 12.79,1.3 3.35,0.86 6.11,1.93 8.29,3.21l-4.29 11.15c-1.73,-0.82 -3.58,-1.57 -5.58,-2.25 -1.98,-0.68 -4.56,-1.01 -7.71,-1.01 -4.06,0 -6.9,0.92 -8.51,2.76 -1.62,1.84 -2.43,4.6 -2.43,8.28l23.67 0 0 12.4 -23.67 0 0 31.55 23.78 0 0 12.4 -51.72 0zm109.89 -5.41c-3.08,2.32 -6.69,4.07 -10.82,5.24 -4.13,1.16 -8.45,1.74 -12.96,1.74 -4.88,0 -9.22,-0.71 -13.01,-2.14 -3.8,-1.42 -6.99,-3.44 -9.58,-6.03 -2.6,-2.59 -4.57,-5.73 -5.92,-9.41 -1.35,-3.68 -2.03,-7.73 -2.03,-12.17 0,-4.73 0.79,-8.94 2.37,-12.62 1.58,-3.68 3.77,-6.8 6.59,-9.35 2.82,-2.56 6.14,-4.49 9.97,-5.81 3.84,-1.31 8,-1.97 12.51,-1.97 4.21,0 8.15,0.49 11.84,1.47 3.68,0.97 6.49,1.91 8.45,2.81l0 19.84 -12.4 0 0 -10.37c-2.33,-0.53 -4.66,-0.79 -6.98,-0.79 -2.11,0 -4.19,0.32 -6.26,0.96 -2.07,0.64 -3.91,1.65 -5.52,3.04 -1.62,1.39 -2.93,3.14 -3.95,5.24 -1.01,2.11 -1.52,4.62 -1.52,7.55 0,2.41 0.42,4.62 1.24,6.65 0.83,2.03 1.99,3.8 3.5,5.3 1.5,1.5 3.36,2.68 5.57,3.55 2.22,0.86 4.68,1.29 7.39,1.29 4.28,0 7.79,-0.6 10.53,-1.8 2.74,-1.2 4.79,-2.25 6.14,-3.16l4.85 10.94zm3.29 -22.77c0,-4.73 0.71,-8.94 2.14,-12.62 1.42,-3.68 3.45,-6.8 6.08,-9.35 2.63,-2.56 5.77,-4.49 9.41,-5.81 3.65,-1.31 7.72,-1.97 12.23,-1.97 4.73,0 8.96,0.72 12.68,2.14 3.72,1.43 6.85,3.44 9.41,6.03 2.55,2.59 4.48,5.73 5.8,9.41 1.31,3.68 1.97,7.74 1.97,12.17 0,4.74 -0.71,8.94 -2.14,12.62 -1.43,3.68 -3.45,6.8 -6.08,9.36 -2.63,2.55 -5.77,4.49 -9.41,5.8 -3.65,1.32 -7.72,1.97 -12.23,1.97 -4.74,0 -8.96,-0.71 -12.68,-2.14 -3.72,-1.42 -6.85,-3.44 -9.41,-6.03 -2.55,-2.59 -4.49,-5.73 -5.8,-9.41 -1.32,-3.68 -1.97,-7.73 -1.97,-12.17zm15.1 0c0,2.48 0.34,4.77 1.01,6.88 0.68,2.1 1.65,3.94 2.93,5.52 1.28,1.58 2.82,2.8 4.62,3.66 1.8,0.87 3.87,1.3 6.2,1.3 4.36,0 7.91,-1.39 10.65,-4.17 2.74,-2.78 4.11,-7.18 4.11,-13.19 0,-5.18 -1.28,-9.37 -3.83,-12.56 -2.55,-3.2 -6.2,-4.79 -10.93,-4.79 -2.1,0 -4.06,0.32 -5.86,0.96 -1.8,0.63 -3.36,1.67 -4.68,3.09 -1.31,1.43 -2.35,3.24 -3.1,5.41 -0.75,2.18 -1.12,4.81 -1.12,7.89zm45.2 -28.17l19.16 0 1.69 6.76 0.45 0c3.91,-5.56 10.22,-8.34 18.93,-8.34 3.46,0 6.64,0.55 9.53,1.64 2.89,1.08 5.37,2.79 7.43,5.12 2.07,2.33 3.67,5.26 4.79,8.79 1.13,3.53 1.69,7.78 1.69,12.74 0,4.81 -0.63,9.14 -1.91,13.01 -1.28,3.87 -3.12,7.16 -5.52,9.86 -2.41,2.71 -5.34,4.78 -8.79,6.2 -3.46,1.43 -7.4,2.14 -11.84,2.14 -2.33,0 -4.62,-0.17 -6.87,-0.5 -2.25,-0.34 -4.13,-0.89 -5.63,-1.64l0 23.1 -14.66 0 0 -66.48 -8.45 0 0 -12.4zm35.84 10.82c-2.86,0 -5.47,0.71 -7.83,2.14 -2.37,1.43 -4,3.57 -4.9,6.42l0 23.44c1.05,0.83 2.57,1.49 4.56,1.97 1.99,0.49 4,0.74 6.03,0.74 2.1,0 4.05,-0.36 5.86,-1.07 1.8,-0.72 3.38,-1.86 4.73,-3.44 1.35,-1.58 2.41,-3.57 3.16,-5.97 0.75,-2.41 1.12,-5.3 1.12,-8.68 0,-4.96 -1.2,-8.79 -3.6,-11.5 -2.41,-2.7 -5.45,-4.05 -9.13,-4.05z"
   id="path4929"
   style="fill:#ffffff" />
  <path
   class="fil0"
   d="M493.89 21.9l1.97 0c0.45,0 0.8,-0.15 1.04,-0.44 0.24,-0.3 0.36,-0.63 0.36,-1.01 0,-0.37 -0.12,-0.7 -0.36,-0.98 -0.24,-0.28 -0.59,-0.42 -1.04,-0.42l-1.97 0 0 2.85zm-1.52 4.69l0 -8.91 3.41 0c0.99,0 1.74,0.25 2.25,0.75 0.5,0.49 0.76,1.07 0.76,1.74 0,0.54 -0.13,0.99 -0.38,1.37 -0.26,0.37 -0.66,0.66 -1.23,0.88l0 0.24c0.45,0.03 0.78,0.18 0.99,0.46 0.2,0.28 0.29,0.59 0.29,0.94l0 2.53 -1.52 0 0 -2.49c0,-0.56 -0.28,-0.84 -0.84,-0.84l-2.21 0 0 3.33 -1.52 0zm2.89 2.45c2.06,0 3.71,-0.62 4.95,-1.87 1.24,-1.24 1.86,-2.89 1.86,-4.95 0,-2.06 -0.62,-3.71 -1.86,-4.96 -1.24,-1.24 -2.89,-1.86 -4.95,-1.86 -2.03,0 -3.68,0.62 -4.94,1.86 -1.25,1.25 -1.88,2.9 -1.88,4.96 0,2.06 0.63,3.71 1.88,4.95 1.26,1.25 2.91,1.87 4.94,1.87zm0 1.52c-1.61,0 -3.04,-0.35 -4.32,-1.06 -1.27,-0.71 -2.27,-1.69 -3.01,-2.95 -0.73,-1.26 -1.1,-2.7 -1.1,-4.33 0,-1.63 0.37,-3.08 1.1,-4.34 0.74,-1.25 1.74,-2.24 3.01,-2.94 1.28,-0.71 2.71,-1.07 4.32,-1.07 1.6,0 3.04,0.36 4.31,1.07 1.27,0.7 2.27,1.69 3.01,2.94 0.73,1.26 1.1,2.71 1.1,4.34 0,1.63 -0.37,3.07 -1.1,4.33 -0.74,1.26 -1.74,2.24 -3.01,2.95 -1.27,0.71 -2.71,1.06 -4.31,1.06z"
   id="path4931"
   style="fill:#ffffff" />
 </g>
</svg>
