<?xml version="1.0" encoding="UTF-8"?> <svg xmlns="http://www.w3.org/2000/svg" id="Слой_1" data-name="Слой 1" viewBox="0 0 788.71 283.97"> <defs> <style>.cls-1{fill:#f2f2f2;}.cls-2{fill:#00fe5f;}</style> </defs> <polygon class="cls-1" points="404.32 234.92 358.08 154.83 331.27 154.96 331.27 281.49 356.23 281.49 356.23 201.53 402.39 281.49 429.28 281.49 429.28 154.96 404.32 154.96 404.32 234.92"></polygon> <path class="cls-1" d="M497.66,154.83h-41V281h41q27.54,0,46.18-18.3t18.65-44.77q0-26.47-18.65-44.77t-46.18-18.3m26.74,90.6a36.12,36.12,0,0,1-26.74,11.26H483.77V179.2h13.89q16.19,0,27,11.26t10.81,27.48A37.69,37.69,0,0,1,524.4,245.43Z"></path> <polygon class="cls-1" points="610.04 228.72 653.07 228.72 653.07 204.44 610.04 204.44 610.04 179.2 666.32 179.2 666.32 154.83 582.95 154.83 582.95 280.97 668.17 280.97 668.17 256.69 610.04 256.69 610.04 228.72"></polygon> <path class="cls-1" d="M761.7,233.21,764,232a24.52,24.52,0,0,0,5.72-4,51.74,51.74,0,0,0,6.55-6.94,37.58,37.58,0,0,0,5.58-10.64,41.37,41.37,0,0,0,2.38-14.17A39.56,39.56,0,0,0,772,166.84q-12.27-12-31-12H689.8V281h27.1V236.81h18.68L759.86,281h28.85Zm-9.36-25.38a17,17,0,0,1-12.27,4.7H716.9V179.2h23.17A16.72,16.72,0,0,1,752.34,184a16.5,16.5,0,0,1,4.88,12.22A15.45,15.45,0,0,1,752.34,207.83Z"></path> <polygon class="cls-1" points="144.09 154.88 98 234.84 98 154.96 71.12 154.96 24.96 234.92 24.96 154.96 0 154.96 0 281.49 26.89 281.49 73.05 201.53 73.05 281.49 99.93 281.49 172.9 154.88 144.09 154.88"></polygon> <path class="cls-1" d="M243.13,151.93a66,66,0,1,0,66,66,66,66,0,0,0-66-66m0,107.09A41.07,41.07,0,1,1,284.2,218,41.11,41.11,0,0,1,243.13,259Z"></path> <path class="cls-2" d="M625.88,105.61h48.45v24H600.84V2.54h25ZM507.38,83.29h34.84L524.8,31.39Zm50.27,46.28L550,106.7H499.4l-7.62,22.87h-27l44.46-127h31l44.64,127Zm-90-127v24h-34.3V129.57h-25V26.49H374.18V2.54Zm-136.28,0h25v127h-25ZM310,61.34v9.8q0,27.21-17.43,44.09t-45,16.88q-29.4,0-48.72-19.15T179.47,66.24q0-27.76,19.15-47T246.07,0a66.28,66.28,0,0,1,32.48,8.08,59.88,59.88,0,0,1,22.87,21.5L280,41.92a33.63,33.63,0,0,0-13.7-12.7,42.55,42.55,0,0,0-20.41-4.9q-18.15,0-29.85,11.88t-11.71,30q0,18,11.89,29.67t31.48,11.7q14.52,0,24.05-6.44a32.06,32.06,0,0,0,13-17.69H246.25V61.34ZM133,2.54h25v127H133ZM50.45,105.61q16.52,0,26.85-11T87.65,66.05q0-17.59-10.35-28.58t-26.85-11H25v79.12Zm0-103.07q26.13,0,43.64,18.33T111.6,66.05q0,26.86-17.51,45.19T50.45,129.57H0V2.54Z"></path> </svg> 