<?xml version="1.0" encoding="UTF-8" standalone="no"?>
<!-- Created with Inkscape (http://www.inkscape.org/) -->

<svg
   width="100mm"
   height="41mm"
   viewBox="0 0 100 41"
   version="1.1"
   id="svg367"
   inkscape:version="1.2.1 (9c6d41e410, 2022-07-14)"
   sodipodi:docname="wonderLogo.svg"
   xmlns:inkscape="http://www.inkscape.org/namespaces/inkscape"
   xmlns:sodipodi="http://sodipodi.sourceforge.net/DTD/sodipodi-0.dtd"
   xmlns="http://www.w3.org/2000/svg"
   xmlns:svg="http://www.w3.org/2000/svg">
  <sodipodi:namedview
     id="namedview369"
     pagecolor="#ffffff"
     bordercolor="#000000"
     borderopacity="0.25"
     inkscape:showpageshadow="2"
     inkscape:pageopacity="0.0"
     inkscape:pagecheckerboard="0"
     inkscape:deskcolor="#d1d1d1"
     inkscape:document-units="mm"
     showgrid="false"
     inkscape:zoom="2.1089995"
     inkscape:cx="193.21958"
     inkscape:cy="160.73972"
     inkscape:window-width="1920"
     inkscape:window-height="1017"
     inkscape:window-x="-8"
     inkscape:window-y="352"
     inkscape:window-maximized="1"
     inkscape:current-layer="layer1" />
  <defs
     id="defs364" />
  <g
     inkscape:label="Слой 1"
     inkscape:groupmode="layer"
     id="layer1">
    <g
       id="g609"
       transform="translate(1.9031148,1.6774488)">
      <g
         id="g182"
         transform="matrix(0.39652419,0,0,-0.39652419,48.387063,32.443067)">
        <path
           d="m 0,0 -15.079,26.12 -8.745,-0.041 v -41.267 h 8.139 V 10.891 L -0.629,-15.188 H 8.139 V 26.079 H 0 Z"
           style="fill:#0e0b0c;fill-opacity:1;fill-rule:nonzero;stroke:none"
           id="path184" />
      </g>
      <g
         id="g186"
         transform="matrix(0.39652419,0,0,-0.39652419,63.916538,33.80243)">
        <path
           d="m 0,0 c -2.409,-2.448 -5.316,-3.672 -8.721,-3.672 h -4.532 v 25.273 h 4.532 c 3.519,0 6.454,-1.224 8.807,-3.672 C 2.438,15.481 3.614,12.493 3.614,8.965 3.614,5.437 2.41,2.448 0,0 m -8.721,29.548 h -13.368 v -41.137 h 13.368 c 5.987,0 11.006,1.988 15.061,5.967 4.055,3.976 6.082,8.845 6.082,14.602 0,5.755 -2.027,10.624 -6.082,14.602 -4.055,3.978 -9.074,5.966 -15.061,5.966"
           style="fill:#0e0b0c;fill-opacity:1;fill-rule:nonzero;stroke:none"
           id="path188" />
      </g>
      <g
         id="g190"
         transform="matrix(0.39652419,0,0,-0.39652419,74.991736,31.641096)">
        <path
           d="M 0,0 H 14.033 V 7.918 H 0 v 8.232 h 18.354 v 7.947 H -8.836 V -17.04 h 27.792 v 7.917 H 0 Z"
           style="fill:#0e0b0c;fill-opacity:1;fill-rule:nonzero;stroke:none"
           id="path192" />
      </g>
      <g
         id="g194"
         transform="matrix(0.39652419,0,0,-0.39652419,93.393314,28.939616)">
        <path
           d="m 0,0 c -1.062,-1.022 -2.396,-1.534 -4.002,-1.534 h -7.556 V 9.337 h 7.556 C -2.396,9.337 -1.062,8.812 0,7.76 1.062,6.708 1.592,5.379 1.592,3.772 1.592,2.281 1.062,1.024 0,0 m 3.055,-8.276 0.746,0.402 c 0.516,0.229 1.138,0.66 1.865,1.291 0.727,0.63 1.438,1.386 2.137,2.266 0.698,0.879 1.305,2.036 1.821,3.47 0.517,1.435 0.775,2.974 0.775,4.619 0,3.788 -1.334,6.986 -4.002,9.597 -2.668,2.61 -6.039,3.915 -10.112,3.915 h -16.679 v -41.137 h 8.836 v 14.4 h 6.093 l 7.918,-14.4 h 9.409 z"
           style="fill:#0e0b0c;fill-opacity:1;fill-rule:nonzero;stroke:none"
           id="path196" />
      </g>
      <g
         id="g202"
         transform="matrix(0.39652419,0,0,-0.39652419,27.542034,35.559508)">
        <path
           d="m 0,0 c -7.385,0 -13.394,6.008 -13.394,13.394 0,7.385 6.009,13.394 13.394,13.394 7.385,0 13.394,-6.009 13.394,-13.394 C 13.394,6.008 7.385,0 0,0 m 0,34.926 c -11.892,0 -21.532,-9.64 -21.532,-21.532 0,-11.893 9.64,-21.533 21.532,-21.533 11.892,0 21.533,9.64 21.533,21.533 0,11.892 -9.641,21.532 -21.533,21.532"
           style="fill:#0e0b0c;fill-opacity:1;fill-rule:nonzero;stroke:none"
           id="path204" />
      </g>
      <path
         d="m 33.23646,-0.06399177 -2.794705,-1.61345703 -2.843869,4.925624 -2.843869,-4.925624 -2.794705,1.61345703 2.843475,4.92522797 h -5.687344 v 3.22731 h 5.687738 L 10.770982,32.431958 V 22.102107 H 7.2942635 L 1.3241975,32.443061 V 22.102107 h -3.2273123 v 16.363364 l 3.4771233,-3.97e-4 5.969661,-10.340558 V 38.465471 L 11.019601,38.465074 27.597886,9.7023992 30.441755,14.628023 33.23646,13.014169 30.392591,8.0885462 h 5.687738 v -3.22731 h -5.687345 z"
         style="fill:#0e0b0c;fill-opacity:1;fill-rule:nonzero;stroke:none;stroke-width:0.396524"
         id="path200" />
    </g>
  </g>
</svg>
