<svg width="266" height="47" viewBox="0 0 266 47" fill="none" xmlns="http://www.w3.org/2000/svg">
<path d="M4.46597 17.1243C4.68848 19.9427 6.83933 21.871 10.251 21.871C13.0694 21.871 15.1461 20.6102 15.1461 18.311C15.1461 15.7893 12.6244 15.196 8.84185 14.5285C4.83681 13.7868 1.05428 12.4518 1.05428 7.70508C1.05428 3.47754 4.46597 0.65918 9.58352 0.65918C15.0719 0.65918 18.5578 3.62587 18.7061 8.07591H14.7752C14.4786 5.62839 12.5502 3.99671 9.58352 3.99671C6.83933 3.99671 4.98515 5.18339 4.98515 7.40841C4.98515 9.85593 7.43267 10.3751 11.2152 11.0426C15.2202 11.7843 19.0769 13.0451 19.0769 17.7918C19.0769 22.0935 15.4427 25.1344 10.1769 25.1344C4.24347 25.1344 0.609272 21.871 0.460938 17.0502L4.46597 17.1243Z" fill="#FF6D00"/>
<path d="M23.4526 0.881836H39.1761V4.3677H27.4577V11.0428H37.1736V14.4545H27.4577V21.4262H39.6211V24.9121H23.4526V0.881836Z" fill="#FF6D00"/>
<path d="M42.0688 24.9121L51.1173 0.881836H55.864L64.8382 24.9862H60.5365L58.2373 19.0528H48.3731L46.1481 24.9862H42.0688V24.9121ZM49.4856 15.6411H57.1248L53.3423 5.10937L49.4856 15.6411Z" fill="#FF6D00"/>
<path d="M67.8052 0.881836H77.2986C82.342 0.881836 85.6795 3.84853 85.6795 8.52107C85.6795 11.7844 83.8253 14.3061 81.007 15.3445L86.1245 24.9121H81.7486L77.0761 16.1603H71.8102V24.9121H67.8793V0.881836H67.8052ZM71.8102 4.29353V12.7486H77.0019C79.8203 12.7486 81.6745 11.1169 81.6745 8.52107C81.6745 5.92522 79.8203 4.29353 77.0019 4.29353H71.8102Z" fill="#FF6D00"/>
<path d="M88.7202 12.8973C88.7202 5.55471 93.2444 0.659668 100.364 0.659668C105.853 0.659668 109.858 3.9972 110.6 9.04058H106.52C105.705 5.99972 103.48 4.14553 100.216 4.14553C95.6178 4.14553 92.7994 7.77973 92.7994 12.8973C92.7994 18.0148 95.5436 21.649 100.068 21.649C103.405 21.649 105.705 19.7948 106.446 16.754H110.525C109.784 21.8715 105.705 25.1349 100.068 25.1349C93.0961 25.1349 88.7202 20.314 88.7202 12.8973Z" fill="#FF6D00"/>
<path d="M114.604 0.881836H118.535V10.9686H129.735V0.881836H133.666V24.9862H129.735V14.4545H118.535V24.9121H114.604V0.881836Z" fill="#FF6D00"/>
<path d="M139.08 0.881836H143.01V24.9862H139.08V0.881836Z" fill="#00B0FF"/>
<path d="M148.351 24.9121V0.881836H151.985L163.703 17.9403V0.881836H167.56V24.9862H163.926L152.207 7.92773V24.9862H148.351V24.9121Z" fill="#00B0FF"/>
<path d="M172.974 0.881836H188.327V4.3677H176.905V11.3394H186.324V14.7511H176.905V24.9121H172.974V0.881836V0.881836Z" fill="#00B0FF"/>
<path d="M217.697 0.881836H227.191C232.234 0.881836 235.572 3.84853 235.572 8.52107C235.572 11.7844 233.717 14.3061 230.899 15.3445L236.017 24.9121H231.641L226.968 16.1603H221.702V24.9121H217.771V0.881836H217.697ZM221.702 4.29353V12.7486H226.894C229.712 12.7486 231.567 11.1169 231.567 8.52107C231.567 5.92522 229.712 4.29353 226.894 4.29353H221.702Z" fill="#00B0FF"/>
<path d="M240.021 0.881836H245.139L252.852 19.8687L260.418 0.881836H265.461V24.9862H261.678V7.18606L254.484 24.9121H251.147L243.952 7.18606V24.9121H240.021V0.881836Z" fill="#00B0FF"/>
<path d="M0.460938 37.687H1.86953V46.0557H0.460938V37.687Z" fill="black"/>
<path d="M4.68701 46.0557V37.687H5.92989L9.98997 43.6528V37.687H11.3157V46.0557H10.0728L6.01275 40.0899V46.0557H4.68701Z" fill="black"/>
<path d="M14.2153 37.687H19.6011V38.9299H15.6239V41.3328H18.9383V42.4928H15.6239V46.0557H14.2153V37.687Z" fill="black"/>
<path d="M25.3184 46.1386C22.9155 46.1386 21.2583 44.3157 21.2583 41.9128C21.2583 39.5099 22.9155 37.687 25.3184 37.687C27.7213 37.687 29.3785 39.5099 29.3785 41.9128C29.3785 44.3157 27.7213 46.1386 25.3184 46.1386ZM25.3184 44.9786C26.8927 44.9786 27.9699 43.7357 27.9699 41.9128C27.9699 40.1728 26.8927 38.847 25.3184 38.847C23.7441 38.847 22.6669 40.0899 22.6669 41.9128C22.6669 43.6528 23.6612 44.9786 25.3184 44.9786Z" fill="black"/>
<path d="M31.8645 37.687H35.1788C36.9188 37.687 38.0789 38.7642 38.0789 40.3385C38.0789 41.4985 37.416 42.3271 36.4217 42.7414L38.1617 46.0557H36.5874L34.9302 42.99H33.1073V46.0557H31.6987V37.687H31.8645ZM33.1902 38.9299V41.9128H35.0131C36.0074 41.9128 36.6703 41.3328 36.6703 40.4213C36.6703 39.5099 36.0074 38.9299 35.0131 38.9299H33.1902V38.9299Z" fill="black"/>
<path d="M40.5645 37.687H42.3874L45.0388 44.3157L47.6903 37.687H49.4303V46.0557H48.1046V39.9242L45.6188 46.0557H44.4588L41.9731 39.9242V46.0557H40.6473V37.687H40.5645Z" fill="black"/>
<path d="M51.502 46.0557L54.6506 37.687H56.3077L59.4564 46.0557H57.9649L57.1363 43.9843H53.6563L52.9105 46.0557H51.502ZM54.0706 42.8242H56.722L55.3963 39.1785L54.0706 42.8242Z" fill="black"/>
<path d="M59.8706 37.687H66.4164V38.9299H63.8478V46.1386H62.4392V38.9299H59.8706V37.687V37.687Z" fill="black"/>
<path d="M68.5708 37.687H69.9794V46.0557H68.5708V37.687Z" fill="black"/>
<path d="M76.5249 46.1386C74.122 46.1386 72.4648 44.3157 72.4648 41.9128C72.4648 39.5099 74.122 37.687 76.5249 37.687C78.9278 37.687 80.585 39.5099 80.585 41.9128C80.585 44.3157 78.9278 46.1386 76.5249 46.1386ZM76.5249 44.9786C78.0992 44.9786 79.1764 43.7357 79.1764 41.9128C79.1764 40.1728 78.0992 38.847 76.5249 38.847C74.9506 38.847 73.8735 40.0899 73.8735 41.9128C73.8735 43.6528 74.9506 44.9786 76.5249 44.9786Z" fill="black"/>
<path d="M83.0713 46.0557V37.687H84.3142L88.3743 43.6528V37.687H89.7V46.0557H88.4571L84.397 40.0899V46.0557H83.0713Z" fill="black"/>
<path d="M97.8196 43.3208C97.9024 44.3151 98.6482 44.9779 99.8082 44.9779C100.802 44.9779 101.548 44.5636 101.548 43.7351C101.548 42.8236 100.637 42.6579 99.311 42.4093C97.9024 42.1607 96.5767 41.7465 96.5767 40.0893C96.5767 38.5978 97.7367 37.6035 99.5596 37.6035C101.465 37.6035 102.708 38.6807 102.708 40.1721H101.3C101.217 39.3436 100.554 38.7635 99.4768 38.7635C98.5653 38.7635 97.9024 39.1778 97.9024 39.9236C97.9024 40.7521 98.731 41.0007 100.057 41.1664C101.465 41.415 102.791 41.8293 102.791 43.4865C102.791 44.9779 101.548 46.0551 99.7253 46.0551C97.6539 46.0551 96.411 44.8951 96.3281 43.2379L97.8196 43.3208Z" fill="black"/>
<path d="M105.443 37.687H110.912V38.9299H106.851V41.2499H110.249V42.41H106.851V44.8129H111.077V46.0557H105.443V37.687V37.687Z" fill="black"/>
<path d="M112.817 41.9128C112.817 39.3442 114.391 37.687 116.877 37.687C118.783 37.687 120.191 38.847 120.44 40.5871H119.031C118.783 39.5099 117.954 38.847 116.794 38.847C115.22 38.847 114.225 40.0899 114.225 41.9128C114.225 43.7357 115.22 44.9786 116.794 44.9786C117.954 44.9786 118.783 44.3157 119.031 43.2385H120.44C120.191 44.9786 118.783 46.1386 116.794 46.1386C114.308 46.1386 112.817 44.4814 112.817 41.9128Z" fill="black"/>
<path d="M122.76 37.687H124.169V42.5757C124.169 44.15 124.749 44.9786 126.075 44.9786C127.4 44.9786 127.98 44.15 127.98 42.5757V37.687H129.389V42.4928C129.389 44.8957 128.229 46.1386 126.075 46.1386C123.92 46.1386 122.76 44.8957 122.76 42.4928V37.687Z" fill="black"/>
<path d="M132.123 37.687H135.438C137.178 37.687 138.338 38.7642 138.338 40.3385C138.338 41.4985 137.675 42.3271 136.68 42.7414L138.42 46.0557H136.846L135.189 42.99H133.366V46.0557H131.958V37.687H132.123ZM133.532 38.9299V41.9128H135.355C136.349 41.9128 137.012 41.3328 137.012 40.4213C137.012 39.5099 136.349 38.9299 135.355 38.9299H133.532V38.9299Z" fill="black"/>
<path d="M140.906 37.687H142.315V46.0557H140.906V37.687Z" fill="black"/>
<path d="M144.387 37.687H150.933V38.9299H148.364V46.1386H146.955V38.9299H144.387V37.687V37.687Z" fill="black"/>
<path d="M152.755 37.687H154.413L156.65 41.4985L158.887 37.687H160.461L157.313 42.99V46.0557H155.904V42.99L152.755 37.687Z" fill="black"/>
<path d="M201.826 17.9397C204.652 17.9397 206.943 15.6485 206.943 12.8221C206.943 9.99579 204.652 7.70459 201.826 7.70459C198.999 7.70459 196.708 9.99579 196.708 12.8221C196.708 15.6485 198.999 17.9397 201.826 17.9397Z" fill="#FF6D00"/>
<path d="M211.69 20.1652C215.25 15.3443 214.879 8.59505 210.503 4.21917C205.682 -0.601704 197.969 -0.601704 193.148 4.21917C188.327 9.04005 188.327 16.7535 193.148 21.5743C197.524 25.9502 204.273 26.321 209.094 22.761L206.498 20.1652C203.16 22.316 198.636 21.9452 195.744 18.9785C192.406 15.6409 192.406 10.1526 195.744 6.81503C199.081 3.4775 204.57 3.4775 207.907 6.81503C210.8 9.70756 211.245 14.2318 209.094 17.5693L211.69 20.1652Z" fill="#FF6D00"/>
</svg>
